<?xml version="1.0" encoding="UTF-8"?>
<svg id="Layer_1" data-name="Layer 1" xmlns="http://www.w3.org/2000/svg" viewBox="0 0 493.24 489.55">
  <defs>
    <style>
      .cls-1 {
        fill: #99895c;
      }
    </style>
  </defs>
  <path class="cls-1" d="m248.12,41.59c54.51,1.46,102.4,19.15,141.79,57.03,39.4,37.89,59.18,84.9,62.2,139.56,1.52.08,2.86.21,4.2.22,9.9.03,19.8.02,29.69.05,4.75.02,7.29,2.11,7.24,5.86-.05,3.56-2.3,5.43-7.13,5.5-9.9.14-19.8.28-29.69.07-3.64-.08-4.68,1.07-4.88,4.64-2.4,43.17-16.83,81.97-43.67,115.84-33.47,42.25-77.31,67.04-130.46,75.35-7.99,1.25-16.16,1.38-24.26,1.84-5.44.31-5.44.16-5.4,5.45.07,9.26.13,18.53.18,27.79,0,1.14.03,2.29-.09,3.42-.36,3.43-2.28,5.29-5.75,5.33-3.57.05-5.32-2.07-5.7-5.37-.23-2.01-.15-4.05-.15-6.08-.03-9.01-.11-18.02-.02-27.03.02-2.6-.89-3.45-3.51-3.61-92.95-5.89-169.24-73.41-186.55-165.29-1.78-9.44-2.32-19.11-3.43-28.67-.11-.98-.22-1.97-.36-3.25-1.63-.1-3.12-.27-4.61-.28-10.4-.07-20.81-.09-31.21-.18-4.46-.04-6.57-1.88-6.55-5.53.02-3.87,2.23-5.82,6.77-5.84,10.66-.04,21.32-.12,31.98.01,3.01.04,4.12-.76,4.31-3.97,2.16-37.26,13.04-71.79,34.14-102.64,33.3-48.68,79.43-77.62,137.55-87.45,5.75-.97,11.56-1.66,17.37-2.1,3.08-.24,4.09-1.34,4.05-4.4-.13-10.53-.08-21.06.02-31.59.05-4.68,2.27-6.64,6.59-6.22,3.39.33,4.94,2.18,4.98,6.35.08,9.64.04,19.29.09,28.93,0,2,.17,4,.28,6.25Zm.67,394.51c6.47-.52,15.36-.86,24.15-1.98,44.23-5.66,82.37-24.26,112.93-56.59,43.59-46.11,60.86-101.32,51.29-164.03-7.9-51.75-34.03-93.29-76.6-123.57-42.32-30.1-89.86-41.08-141.35-33.85-45.57,6.39-84.22,26.61-114.79,60.87-39.45,44.21-55.34,96.2-47.42,155.07,5.61,41.74,23.49,77.76,53.26,107.38,37.51,37.32,83.26,55.73,138.53,56.71Z"/>
  <path class="cls-1" d="m338.84,452.42c-.79-2.28-1.36-3.92-1.98-5.71,53.22-22.32,91.26-59.85,114.76-112.86,1.63.55,3.34,1.13,5.55,1.88-9.34,23.1-22.26,43.49-38.76,61.59-22.17,24.32-48.33,42.93-79.57,55.1Z"/>
  <path class="cls-1" d="m336.46,42.96c.79-1.93,1.45-3.52,2.38-5.77,55.05,22.74,94.54,60.79,118.32,115.57-1.22.6-2.07,1.07-2.96,1.44-.79.33-1.62.56-2.62.89-23.33-52.76-61.62-90.1-115.12-112.13Z"/>
  <path class="cls-1" d="m149.1,39.08c.87,2.41,1.43,3.93,2.09,5.78-49.87,22.92-85.62,59.63-107.69,109.89-1.78-.52-3.44-1-5.83-1.7,22.34-52.7,59.27-90.29,111.43-113.97Z"/>
  <path class="cls-1" d="m37.97,335.89c2.22-.83,3.94-1.47,5.83-2.18,21.51,50.93,57.48,87.55,107.65,110.65-.71,1.72-1.37,3.32-2.33,5.63-52.02-23.61-88.9-61.34-111.15-114.11Z"/>
  <path class="cls-1" d="m426.94,244.16c-.45,98.97-80.47,179.08-179.46,179.26-96.28.17-179.93-76.88-179.91-178.97.02-94.9,76.99-178.69,181.15-178.13,98.41.53,178.41,80.15,178.22,177.84Zm-68.84,132.05c-1.4-1.6-2.29-2.62-3.2-3.64-8.6-9.67-17.22-19.32-25.78-29.03-.61-.69-.72-1.82-1.06-2.74.89.39,2.02.56,2.63,1.21,7.72,8.24,15.36,16.56,23.04,24.83,2.2,2.37,4.49,4.64,6.94,7.16,3.14-3.23,5.94-6.11,9.39-9.66-1.18-.88-2.39-1.61-3.4-2.55-9.53-8.94-19.01-17.93-28.53-26.89-1.19-1.12-2.88-2.12-.19-3.48,11.38,10.32,22.7,20.58,34.31,31.11,2.99-3.61,5.6-6.76,8.38-10.11-12.47-9.96-24.49-19.56-36.52-29.16.23-.43.45-.86.68-1.3.98.41,2.1.63,2.92,1.24,9.92,7.49,19.78,15.05,29.68,22.56,1.78,1.35,3.66,2.59,5.79,4.09,3.69-5.37,7.15-10.41,10.73-15.64-14.08-8.3-27.58-16.26-41.26-24.33,1.45-2.59,2.72-4.86,4.18-7.48,13.94,8.15,27.56,16.12,41.69,24.38,3.45-7.45,6.75-14.57,10.27-22.17-15.67-5.26-30.48-10.24-45.29-15.21.01-.41.03-.81.04-1.22,1.2,0,2.48-.28,3.57.05,8.24,2.46,16.45,5.03,24.66,7.59,5.87,1.82,11.73,3.67,17.87,5.58.99-3.18,1.68-6.02,2.75-8.7,1.23-3.1.07-4.25-2.91-4.94-13.06-3.04-26.09-6.23-39.12-9.42-1.14-.28-2.19-.95-3.28-1.44l.52-1.68c15.4,3.38,30.79,6.76,46.7,10.26.91-4.34,1.76-8.45,2.66-12.76-2.2-.45-3.78-.84-5.38-1.09-13.14-2.05-26.29-4.05-39.42-6.15-.84-.13-1.56-1.01-2.34-1.55.22-.35.44-.7.67-1.05,15.51,2.13,31.03,4.26,47.21,6.48.53-5.12,1.02-9.81,1.57-15.11h-48.21v-7.6c1.9,0,3.52,0,5.14,0,13.07,0,26.14.01,39.21,0,4.29,0,4.44-.25,3.48-5.01h-47.7v-7.83h48.11c-.58-5.41-1.1-10.3-1.63-15.24-16.31,1.71-31.68,4.68-47.24,5.8-.09-.6-.17-1.2-.26-1.79,15.44-2.4,30.89-4.8,46.86-7.29-.95-4.65-1.8-8.77-2.66-12.98-1.18.17-1.8.23-2.4.36-13.7,3.07-27.4,6.18-41.11,9.19-1.13.25-2.38-.08-3.57-.14,0-.45.02-.89.03-1.34,2.05-.55,4.08-1.13,6.14-1.64,12.16-3,24.33-5.93,36.46-9.04,1.12-.29,2.92-1.86,2.79-2.5-.78-3.63-2.05-7.16-3.17-10.79-1.43.4-2.28.62-3.11.88-13.06,4.05-26.1,8.12-39.17,12.11-1.13.35-2.41.19-3.62.27-.04-.43-.07-.86-.11-1.29,1.49-.58,2.96-1.21,4.47-1.72,12.24-4.1,24.49-8.13,36.7-12.32,1.13-.39,2.9-2.16,2.71-2.62-2.73-6.72-5.74-13.33-8.74-20.08-14.28,8.42-27.77,16.38-41.36,24.4-.92-1.3-1.54-2.09-2.06-2.94-2.62-4.24-2.57-4.18,1.84-6.77,6.99-4.11,13.94-8.29,20.9-12.47,5.18-3.11,10.34-6.26,16.02-9.7-3.93-5.47-7.56-10.54-11.33-15.78-1.61,1.24-2.7,2.07-3.78,2.92-10.47,8.23-20.93,16.47-31.45,24.64-.64.5-1.73.41-2.61.59-.08-.36-.15-.73-.23-1.09,11.85-9.72,23.7-19.43,35.97-29.5-3.09-3.5-5.87-6.66-8.74-9.91-.71.63-1.08.94-1.44,1.28-10.3,9.61-20.58,19.23-30.92,28.79-.59.54-1.63.6-2.46.89.23-.84.24-1.88.75-2.49,1.31-1.54,2.83-2.91,4.29-4.32,8.29-8.03,16.61-16.04,24.88-24.1,1.11-1.08,2.87-2.17.89-4.01-2.48-2.3-4.94-4.62-7.68-7.19-10.56,11.36-20.8,22.37-31.04,33.38-.41-.2-.81-.4-1.22-.6.37-.92.54-2.02,1.15-2.73,4.16-4.79,8.42-9.49,12.64-14.22,5.22-5.85,10.45-11.69,16.08-17.98-6.98-4.97-13.63-9.7-20.66-14.7-7.9,13.88-15.45,27.12-23.08,40.52-2.66-1.69-4.86-3.09-7.06-4.5,7.46-13.47,14.73-26.61,22.38-40.44-9.53-4.01-18.41-7.75-27.6-11.61-1.28,3.26-2.29,5.69-3.19,8.17-3.68,10.11-7.29,20.24-11.02,30.33-.48,1.29-1.54,2.37-2.33,3.54-.36-.26-.72-.52-1.08-.78,3.6-10.64,7.22-21.28,10.81-31.93q3.54-10.51-7.29-12.9c-.22-.05-.48.11-1.08.26-.36,1.11-.81,2.39-1.2,3.7-3.45,11.78-6.86,23.56-10.35,35.33-.34,1.15-1.14,2.17-1.73,3.25-.44-.21-.88-.42-1.33-.62,3.76-14.18,7.53-28.35,11.38-42.89-3.28-.62-5.91-1-8.47-1.63-2.98-.73-4.26.19-4.78,3.34-.73,4.4-2.09,8.7-3.18,13.04-.26-.06-.52-.12-.79-.18l1.52-17.34-1.37-.39c-3.53,6.26-6.92,12.59-10.64,18.73-1.4,2.31-1.18,4.05,0,6.27,3.43,6.45,6.66,13.01,10.09,19.78-1.86,0-3.25-.04-4.63,0-3.36.12-5.55-.94-6.69-4.56-1.02-3.24-3.07-6.16-4.91-9.69-.96,1.69-1.79,2.71-2.15,3.87-2.38,7.78-7.34,10.99-15.58,9.9-4.22-.55-5.47-1.08-5.49-5.53-.04-10.91-.05-21.83-.07-32.74,0-1.61,0-3.23,0-5.32-3.7.56-6.79,1.19-9.9,1.44-2.71.22-3.37,1.18-2.79,3.89,1.98,9.15,3.75,18.35,5.5,27.56.8,4.24,1.35,8.54,2.01,12.81-.43.11-.86.21-1.29.32-.39-1.05-.9-2.07-1.14-3.15-2.74-12.35-5.4-24.72-8.22-37.06-.24-1.04-1.57-2.73-2.15-2.64-3.53.58-7,1.59-10.66,2.5,3.59,15,8.75,28.97,11.6,43.49-.53.15-1.06.3-1.59.45-4.45-14.22-8.89-28.44-13.39-42.83-2.58.8-4.65,1.36-6.66,2.08-4.51,1.61-4.75,2.09-3.14,6.59,4.14,11.56,8.34,23.1,12.45,34.67.42,1.18.41,2.51.6,3.77-.47.11-.95.22-1.42.33-5.47-14.01-10.93-28.01-16.48-42.24-2.32,1.11-4.18,2-6.13,2.93,6.95,13.6,13.67,26.76,20.5,40.13-2.58,1.01-4.51,1.76-6.47,2.52-1.41-2.76-2.58-5.14-3.82-7.48-5.19-9.86-10.38-19.73-15.65-29.55-.45-.84-1.54-1.33-2.33-1.98.04,1.09-.24,2.32.17,3.25,1.22,2.78,2.71,5.44,4.1,8.14,4.98,9.65,9.97,19.3,15.02,29.07-2.16,1.17-4.02,2.19-5.97,3.25-6.93-13.25-13.76-26.3-20.59-39.35-.54.11-1.08.23-1.63.34.05,1.25-.29,2.71.23,3.73,5.92,11.62,11.99,23.18,17.99,34.76.44.85.7,1.79,1.13,2.9-2.02,1.21-3.81,2.27-5.74,3.43-7.01-13.32-13.81-26.25-20.93-39.77-4.59,3.59-8.7,6.93-12.96,10.07-2.36,1.74-2.16,3.12-.34,5.19,8.04,9.15,15.95,18.4,23.87,27.66.96,1.12,1.67,2.44,2.5,3.67-.44.36-.88.72-1.32,1.07-9.97-11.01-19.94-22.02-29.42-32.49-3.27,3-6.03,5.54-9.77,8.98,1.26.74,2.56,1.2,3.45,2.08,8.66,8.57,17.26,17.19,25.82,25.85.76.77,1.11,1.96,1.65,2.96-.4.22-.8.44-1.2.66-10.46-9.92-20.92-19.84-31.68-30.05-1.68,1.97-3.12,3.69-4.57,5.39-3.57,4.17-3.52,4.1.83,7.73,9.06,7.55,18.07,15.17,27.05,22.82.7.6.96,1.71,1.42,2.59-.36.2-.73.4-1.09.6-11.14-8.92-22.29-17.84-33.65-26.94-2.14,3-4.09,5.71-6.15,8.6,12.54,7.72,24.69,15.2,37.05,22.81-1.45,1.99-2.68,3.68-4.08,5.59-1.51-.86-2.82-1.56-4.09-2.34-9.85-6-19.66-12.05-29.56-17.97-.95-.57-2.37-.34-3.57-.49.7,1.08,1.16,2.54,2.15,3.16,8.56,5.43,17.22,10.71,25.84,16.06,2.34,1.45,4.62,2.97,6.94,4.47-1.21,2.27-2.2,4.11-3.22,6-2.09-.71-3.9-1.28-5.68-1.93-10.34-3.78-20.66-7.6-31.02-11.35-1.56-.57-3.38-1.72-4.45.85-1.35,3.25-2.74,6.48-4.23,9.99,1.84.74,3.32,1.41,4.84,1.95,10.51,3.69,21.03,7.33,31.53,11.06,1.06.38,1.95,1.22,2.92,1.85-.22.37-.45.74-.67,1.11-13.2-4.16-26.4-8.32-40.01-12.61-1.27,4.23-2.37,7.93-3.62,12.12,13.84,3.54,27.21,6.95,40.58,10.37l-.06,1.35c-1.11.08-2.27.41-3.31.19-4.71-.99-9.37-2.17-14.06-3.22-7.87-1.77-15.74-3.51-24.04-5.35-.9,4.35-1.71,8.24-2.62,12.67,7.39,1.14,14.39,2.03,21.31,3.36,6.64,1.28,13.6,1.2,20.03,3.41-.1.56-.2,1.12-.3,1.68-13.71-1.67-27.42-3.34-41.7-5.08-.56,5.43-1.07,10.37-1.63,15.83h42.18c1.21,6.75.9,7.16-5.09,7.16-11.04,0-22.08,0-33.12.03-1.33,0-2.66.16-3.99.24-.1.45-.19.9-.29,1.35,1.02.37,2.04,1.03,3.07,1.05,4.82.11,9.64.04,14.46.04,8.22,0,16.45,0,24.55,0,1.71,5.67,1.19,6.47-4.09,6.51-10.91.07-21.83.09-32.74.14-1.48,0-2.96.13-5.05.22.61,5.75,1.17,11.08,1.79,16.94,14.23-1.89,27.96-3.71,41.69-5.54.09.59.19,1.18.28,1.76-13.51,3.25-27.47,4.31-41.37,7.36.57,3.04,1.21,5.73,1.54,8.46.39,3.22,1.61,4.21,5.01,3.36,12.25-3.04,24.58-5.78,36.88-8.63.24.34.48.68.71,1.01-.75.58-1.42,1.45-2.27,1.69-5.6,1.57-11.24,3.01-16.87,4.48-7.07,1.84-14.14,3.67-21.67,5.63,1.27,4.36,2.4,8.28,3.63,12.49,13.71-4.53,26.83-8.86,39.96-13.2.21.36.42.73.64,1.09-.9.62-1.73,1.45-2.73,1.82-8.78,3.27-17.59,6.45-26.39,9.68-3.29,1.21-6.55,2.47-10.16,3.83,1.93,4.69,3.67,8.94,5.55,13.54,13.46-5.18,26.41-10.15,39.31-15.11q3.58,5.22-1.16,8.66c-4.63,3.34-9.28,6.64-13.91,9.98-5.22,3.77-10.43,7.56-16.01,11.6,3.46,5.13,6.73,9.98,10.12,15.02,11.76-9.04,22.94-17.62,34.11-26.21l1.09,1.34c-.91.89-1.75,1.86-2.73,2.66-9.22,7.56-18.47,15.08-27.71,22.62-1.3,1.06-2.83,2.04-1.19,3.97,2.19,2.58,4.39,5.16,6.67,7.84,1-.84,1.69-1.38,2.33-1.98,9.1-8.47,18.2-16.94,27.3-25.42q1.87-1.74,2.67-.75c-9.77,10.42-19.46,20.76-29.33,31.28,2.58,2.41,5.31,4.97,9.03,8.45,1.36-1.78,2.7-3.79,4.29-5.57,7.55-8.39,15.15-16.74,22.81-25.04.59-.63,1.73-.75,2.62-1.11.16.36.32.71.48,1.07-9.38,10.75-18.75,21.5-28.51,32.69,4.81,3.74,9.22,7.17,13.87,10.78,7.79-13.3,15.2-25.95,22.73-38.8,2.1,1.34,3.88,2.47,5.83,3.71-7.57,13.12-15.02,26.05-22.48,38.99.48.37.96.73,1.44,1.1.93-1,2.07-1.88,2.74-3.03,5.99-10.14,11.9-20.34,17.84-30.51.93-1.59,1.92-3.16,2.96-4.86,2.14,1.19,3.97,2.2,5.88,3.26-7.16,12.43-14.08,24.51-21.08,36.55-1.06,1.82-1.6,3.17,1.43,3.79,7.45-12.91,14.9-25.83,22.49-38.98,2.03,1.04,3.91,2,6.18,3.16-7.51,13.14-14.91,26.08-22.52,39.39,2.94,1.35,5.52,2.54,8.61,3.96,2.06-5.1,4.02-9.86,5.9-14.65,1.85-4.71,3.45-9.53,5.5-14.15,1.98-4.49,2.74-9.64,6.07-13.45.39.17.79.33,1.18.5-5.05,14.2-10.11,28.4-15.33,43.08,3.78,1.4,7.35,2.72,11.22,4.15,4.74-14.9,9.29-29.19,13.83-43.47.62.18,1.24.37,1.86.55-4.07,14.52-8.15,29.04-12.34,43.99,4.19,1.03,7.94,1.95,12.05,2.96,3.49-14.93,6.9-29.49,10.3-44.04.63.14,1.26.28,1.9.42-2.91,14.7-5.83,29.4-8.83,44.54,5.4.84,10.2,1.59,15.72,2.45v-45.62q7.71-.78,7.69,6.12c-.03,12.18,0,24.36-.08,36.54-.02,3.04.99,4.3,4.61,2.91v-44.79c6.88-1.11,6.96-1.03,6.99,4.93.05,9.64.13,19.29.18,28.93.02,3.78,0,7.55,0,11.22,3.43,1.21,4.23-.16,4.22-2.94-.07-12.69,0-25.38-.09-38.07-.02-3.05-.1-5.33,4.22-5.18,4.55.15,3.11,3.2,3.13,5.35.13,11.93.09,23.86.13,35.78,0,1.6.15,3.19.25,5.16,2.67-.31,4.86-.56,7.3-.85-.61-8.84-1.19-17.28-1.77-25.71.25-.04.5-.08.75-.12,1.52,8.4,3.03,16.8,4.63,25.66,4.16-.7,8.08-1.36,12.42-2.09-3.79-15.11-7.46-29.73-11.13-44.35.64-.17,1.27-.34,1.91-.51,4.17,14.52,8.33,29.05,12.61,43.95,4.07-1.06,7.8-2.03,12.05-3.13-4.93-14.76-9.73-29.13-14.54-43.5.64-.22,1.28-.44,1.92-.66,5.26,14.32,10.51,28.64,15.97,43.52,9.5-4.11,18.51-8.01,27.97-12.11-7.96-14.06-15.54-27.46-23.3-41.16,2.62-1.53,4.88-2.84,7.41-4.31,7.85,13.75,15.54,27.21,23.52,41.18,7.12-5.25,13.69-10.1,20.6-15.19ZM235.19,75.43c-.26.07-.51.14-.77.21v40.14c3.61-6.77,6.73-12.52,9.75-18.32.42-.81.84-2.07.51-2.77-3.07-6.47-6.3-12.85-9.49-19.27Zm14.65,11.99c2.63-4.92,4.79-8.95,7.17-13.39h-13.49c2.14,4.53,4.04,8.57,6.32,13.39Zm-153.84,239.31c6.24-4.8,12.02-9.26,17.81-13.71-.18-.29-.36-.58-.53-.88-6.79,2.73-13.57,5.46-20.54,8.27,1.2,2.31,2.11,4.08,3.27,6.31Zm21.47-146.77c.17-.36.34-.72.51-1.08-7.51-4.57-15.01-9.14-22.88-13.93-.79,1.63-1.46,3.02-2.34,4.85,8.5,3.5,16.6,6.83,24.71,10.16Z"/>
  <path class="cls-1" d="m211.03,187.76c7.84-4,15.97-6.12,24.52-6.67,13.25-.84,25.72,1.98,37.05,9.04,2.6,1.62,3.29-.13,4.83-1.98-23.12-13.95-46.4-14.59-70.32-3.34,2.02.18,3.33,1.41,3.92,2.95Z"/>
  <path class="cls-1" d="m338.58,251.74c3.22.35,6.51.08,9.91.08.08-1.66.14-3.12.22-4.74-4.47-.32-8.6-.61-12.96-.92v-8.06c4.27-.53,8.47-1.05,12.83-1.59-.14-1.76-.25-3.11-.38-4.88-4.51.35-8.73.68-13.28,1.04-.51-2.89-.95-5.42-1.43-8.16,4.49-1.1,8.62-2.11,13.08-3.2-.56-1.83-1.02-3.31-1.47-4.78-4.53,1-8.57,1.9-13,2.88-.78-2.77-1.47-5.24-2.2-7.84,4.31-1.77,8.22-3.37,12.37-5.08-.78-1.8-1.39-3.23-2.1-4.88-2.21.88-3.97,1.54-5.7,2.28q-7.06,3.02-10.07-4.65c3.42-2.06,10.23-6.41,14.43-8.98-1.42-1.43-2.73-2.96-4.07-4.46-.04-.05-.06-.1-.09-.15-3.97,2.54-9.11,6.3-12.31,8.18-1.23-1.49-4.6-5.59-3.18-7.01,4.12-4.12,13.03-10.35,13.35-10.82-.99-.99-4.7-5.17-4.7-5.17,0,0-12.03,8.48-15.07,10.98-1.18-1.3-2.05-2.26-3.25-3.58,3.62-3.22,7.48-8.14,10.63-11.21,2.61-2.54-2.22-5.35-3.59-3.98-.95.95-8.66,9-11.08,11.65-2.47-2.32-4.26-4.01-6-5.64,2.94-4.02,5.67-7.76,8.6-11.76-1.59-1.16-2.77-2.02-4.3-3.13-2.92,4.04-5.7,7.9-8.65,11.98-2.26-1.54-4.2-2.86-6.25-4.26,2.33-4.59,4.49-8.83,6.76-13.28-1.64-.91-2.93-1.63-4.67-2.6-2.28,4.6-4.43,8.95-6.64,13.4-2.47-1.16-4.61-2.16-6.99-3.28,1.57-4.97,3.06-9.71,4.49-14.22-3.65-2.63-5.13-1.26-6.06,2.01-.96,3.38-2.23,6.67-3.42,10.18-2.57-.71-4.82-1.33-7.28-2,.93-5.24,1.8-10.17,2.71-15.26-1.78-.33-3.22-.61-4.98-.94-.76,3.97-1.75,7.65-2.09,11.39-.31,3.41-2.1,3.24-4.62,3-2.8-.27-4.05-1.19-3.65-4.26.5-3.83.54-7.73.79-11.8h-5.21c-.14,3.08-.32,5.97-.41,8.87-.18,6.51-.46,6.76-7.05,5.83-.23-.03-.43-.23-.98-.53-.2-3.33-.47-6.85-.62-10.38-.2-4.72-.95-5.19-5.51-3.15.24,4.71.49,9.48.74,14.42-2.6.38-4.8.7-7.33,1.06-1.06-5.19-2.06-10.06-3.1-15.14-2.01.55-3.52.95-5.08,1.38.97,5.14,1.86,9.82,2.78,14.68-2.45.65-4.59,1.22-7.01,1.87-1.78-4.86-3.46-9.45-5.21-14.21-1.62.54-2.98,1-4.69,1.57,1.6,4.97,3.1,9.63,4.67,14.52-2.15,1-4.17,1.93-6.38,2.95-2.55-4.53-4.96-8.8-7.56-13.42-1.57.85-2.93,1.59-4.45,2.41,2.27,4.64,4.37,8.93,6.58,13.42-1.37.84-2.6,1.6-3.89,2.4-2.04-2.75-3.73-5.42-5.83-7.75-1.79-1.99-4.22-2.34-6.53-.69-2.3,1.64-2.78,3.89-1.43,6.36.97,1.77,2.09,3.47,3.28,5.1,1.06,1.45,1.83,2.63-.03,4.16-1.92,1.57-3.1.8-4.43-.72-2.31-2.65-4.72-5.22-7.29-8.04-1.35,1.2-2.44,2.17-3.68,3.28,2.96,3.77,5.74,7.32,8.29,10.57-1.73,1.96-3.21,3.63-4.71,5.34-3.75-2.97-7.29-5.77-10.95-8.68-1.21,1.41-2.24,2.61-3.31,3.86,3.72,3.39,7.14,6.5,10.58,9.64-1.64,2.17-2.93,3.87-4.38,5.79-4-2.27-7.92-4.5-12.09-6.87-.99,1.56-1.82,2.87-2.71,4.27,4.07,2.71,7.72,5.14,11.43,7.61-1.29,2.49-2.37,4.59-3.54,6.85-4.43-1.78-8.58-3.45-12.93-5.2-.71,1.86-1.23,3.22-1.79,4.7,4.16,2.07,7.99,3.97,11.99,5.95-.84,2.43-1.6,4.65-2.42,7.03-4.7-.98-9.08-1.9-13.56-2.83-.46,1.96-.79,3.36-1.14,4.86,4.5,1.29,8.6,2.47,12.91,3.71-.56,2.79-1.04,5.21-1.57,7.86-4.7-.41-9.05-.79-13.58-1.18-.26,1.93-.45,3.37-.66,5.01,4.65.68,8.87,1.29,12.99,1.9,1.25,7.88.88,8.36-6.26,8.47-1.27.02-2.54.12-3.81.05-2.13-.12-3.66.13-3.68,2.92-.02,3.06,1.98,2.69,3.87,2.72,1.14.01,2.28-.03,3.43,0,7.93.22,6.77-1.34,7.05,7.15,0,.21-.22.43-.47.88-2.69.49-5.54,1.1-8.42,1.52-4.6.68-4.82.98-3.18,5.72,4.41-.48,8.87-.98,13.49-1.48.56,2.8,1.03,5.12,1.54,7.66-4.5,1.52-8.73,2.95-13.15,4.45.58,1.85,1.02,3.25,1.51,4.81,4.62-1.33,8.95-2.58,13.54-3.91.96,2.65,1.8,4.97,2.69,7.43-4.22,2.06-8.18,3.99-12.44,6.07.75,1.65,1.39,3.06,2.11,4.65,4.49-1.94,8.62-3.72,12.91-5.56,1.24,2.42,2.25,4.4,3.41,6.66-3.96,2.65-7.7,5.16-11.72,7.84,1.04,1.57,1.95,2.95,2.85,4.32,4.25-2.68,8.05-5.09,11.92-7.54,1.58,2.1,2.84,3.77,4.2,5.59-3.52,3.32-6.82,6.44-10.26,9.69,1.05,1.28,1.99,2.42,3.1,3.77,3.75-3.08,7.33-6.02,11.03-9.07,1.6,1.77,3,3.32,4.5,4.98-3.02,3.74-5.93,7.33-8.94,11.05,1.31,1.17,2.32,2.08,3.65,3.26,3.33-3.56,6.5-6.95,9.83-10.51,1.82,1.26,3.54,2.45,5.53,3.83-2.74,4.25-5.31,8.24-7.94,12.32,1.39.97,2.58,1.81,3.93,2.76,3.08-4.15,5.92-7.97,8.79-11.84,2.11,1.22,3.93,2.26,5.92,3.41-2.16,4.38-4.22,8.54-6.4,12.96,1.68.78,3.1,1.43,4.6,2.13,2.45-4.43,4.69-8.5,7-12.68,2.42,1,4.47,1.86,6.62,2.75-1.54,4.77-3,9.3-4.55,14.1,1.78.59,3.18,1.05,4.89,1.62,1.01-2.9,1.98-5.62,2.91-8.35q2.14-6.31,8.34-4.08c.33.12.59.43,1.01.75-.9,4.53-1.81,9.06-2.79,13.98,1.91.27,3.44.49,5.25.75.78-4.14,1.35-7.89,2.25-11.56.26-1.04,1.43-2.53,2.3-2.6,1.91-.17,3.9.42,5.98.71-.25,5.07-.49,9.81-.73,14.66h5.04c.34-4.87.67-9.52,1-14.26h7.7c.32,4.98.61,9.59.92,14.45,2.05-.33,3.5-.56,5.21-.84-.19-2.56-.25-4.83-.54-7.07-.95-7.38-.98-7.38,6.19-8.61.21-.04.47.16,1.02.36.97,4.42,1.98,9.03,3.01,13.75,1.8-.43,3.12-.75,4.88-1.18-.68-3.22-1.28-6.28-1.96-9.32-1.1-4.88-1.12-4.88,3.76-6.4.93-.29,1.88-.49,2.92-.76,1.59,4.59,3.1,8.95,4.71,13.61,1.94-.76,3.4-1.33,4.93-1.93-1.7-4.76-3.26-9.12-4.88-13.66,2.56-1.29,4.77-2.41,7.06-3.57,2.34,4.42,4.51,8.5,6.76,12.74,1.79-1,3.19-1.79,4.7-2.64-2.32-4.37-4.5-8.47-6.77-12.75,2.28-1.62,4.29-3.04,6.43-4.56,2.92,3.89,5.62,7.49,8.44,11.25,1.58-1.24,2.82-2.22,4.05-3.19-2.81-4.04-5.38-7.75-8.03-11.56,2.28-1.9,4.19-3.5,6.69-5.59,3.2,3.34,6.32,6.58,9.2,9.59,1.27-.93,2.49-1.83,3.93-2.87-3.47-3.69-6.57-6.99-9.82-10.46,1.84-2.15,3.5-4.1,5.19-6.06,3.9,2.78,7.46,5.32,11.15,7.94,1.19-1.71,2.08-3,3.02-4.35-3.79-2.87-7.3-5.53-10.83-8.2,1-1.48,1.93-2.55,2.52-3.79,1.19-2.53,2.7-2.94,5.09-1.48,2.65,1.62,5.47,2.97,8.35,4.51.98-1.67,1.8-3.07,2.77-4.72-4.04-2.14-7.81-4.14-11.74-6.22,1.15-2.54,2.22-4.91,3.39-7.51,4.28,1.43,8.3,2.78,12.56,4.2.66-1.79,1.19-3.26,1.8-4.9-4.44-1.51-8.45-2.88-12.55-4.27.72-2.83,1.34-5.24,2.05-8.02,4.49.69,8.79,1.36,13.42,2.08.26-1.91.48-3.43.69-4.95-4.52-.91-8.56-1.73-12.69-2.56.17-1.95.49-3.46.4-4.94-.17-2.92,1-3.67,3.85-3.37Zm-44.94,54.44c-35.97,31.62-89.33,27.15-118.64-10.62-28.41-36.61-20.54-89.6,15.96-115.9.08.12,5.77-3.92,7.32-4.46,0-.09,0-.17,0-.26,24.23-18.06,69.61-18.25,97.94,10.52-3.89,3.58-7.78,7.15-11.61,10.67-5.63-3.98-9.32-4.37-11.59-1.4-2.22,2.92-1.24,6.34,3.17,9.97-1.03,1.06-1.99,2.14-3.04,3.14-7.26,6.9-14.5,13.84-21.88,20.61-.81.74-2.78,1.06-3.76.61-4.21-1.98-8.43-2.5-12.95-1.38-.9.22-2.51.02-2.92-.57-4.7-7.01-9.24-14.13-14.12-21.7,1.92-.45,3.13-.64,4.27-1.02,3.25-1.08,5.03-4.43,4.08-7.57-.89-2.95-4.13-4.76-7.26-4.03-3.72.86-4.01,3.73-4.48,7.19-1.36-2.12-2.72-4.25-4.16-6.5-.8.79-8.08-1.83-8.83-2.37-.53.38,3.95,10.2,6.05,13.54-2.27.64-4.19,1.13-6.08,1.71-6.68,2.05-12.93,9.66-13.43,16.57-.22,3.02,1.48,5.09,4.29,5.99,2.83.91,6.37-.81,7.22-3.47.9-2.81.37-5.29-2.45-6.83-.77-.42-1.6-.73-2.39-1.08,1.69-5.02,9.46-9.88,14.73-9.07.83.13,1.77.94,2.27,1.7,4.53,6.88,9.04,13.77,13.37,20.78.52.85.3,2.64-.26,3.59-4.42,7.53-3.76,16.09,1.87,22.18,5.05,5.45,14.34,6.96,21.45,3.48,7.67-3.76,11.49-13.37,8.46-21.33-.49-1.3-1.11-2.55-1.8-4.11,10.05-9.05,19.88-17.91,30.4-27.39,0,3.59.23,6.09-.12,8.51-.13.88-1.5,1.85-2.51,2.3-3.61,1.61-5.15,4.67-3.74,7.86,1.42,3.2,5.24,4.74,8.25,3.33,3.07-1.43,4.18-5.11,2.67-8.44-.49-1.08-.85-2.33-.84-3.5,0-3.77.2-7.54.37-11.31.02-.44.36-.87.6-1.4.11.15,11.04-9.64,13.28-11.64,26.96,31.21,25.36,82.76-9.14,113.09Z"/>
  <path class="cls-1" d="m294.85,212.59c-.15,0-.29-.01-.44-.02,14.55,27.08,9.93,61.31-15.2,81.84-27.08,22.13-68.12,17.33-89.94-10.52-20.63-26.35-17.12-64.91,7.41-86.95-.26.04-.52.06-.8.06-1.83,0-3.14-.81-3.93-1.96-1.21,1.58-2.41,3.12-3.66,4.59-17.19,20.28-20.98,43.26-12.46,67.95,8.29,24.03,26.01,38.48,50.62,43.43,36.28,7.3,69.77-14.38,78.33-50.03,4.22-17.56,1.84-34.17-6.75-49.52-.78.68-1.84,1.12-3.17,1.12Z"/>
</svg>