<?xml version="1.0" encoding="UTF-8"?>
<svg id="Layer_1" data-name="Layer 1" xmlns="http://www.w3.org/2000/svg" viewBox="0 0 468.01 430.53">
  <defs>
    <style>
      .cls-1 {
        fill: #99895c;
      }
    </style>
  </defs>
  <path class="cls-1" d="m416.04,179.55h-29.46v7.49h42.13c.07.5.14,1,.21,1.5-1.28.23-2.55.65-3.83.65-11.14.06-22.29.05-33.43.06-1.54,0-3.07,0-4.93,0-.51,8.9-1,17.59-1.51,26.53.79.27,1.64.59,2.51.84,4.61,1.35,7.14,4.47,7.28,9.31.12,4.15.05,8.3.03,12.45-.05,8.72-2.34,11.37-11.12,12.68,0,1.21.03,2.46,0,3.72-.15,5.43-3.08,8.72-8.48,9.02-4.61.25-9.25.23-13.86.03-4.53-.2-7.66-3.26-8.32-7.78-.26-1.74-.24-3.53-.38-5.83-4.73,0-9.52-.04-14.32.01-4.19.04-8.2-.18-12.2,2.39-2.62,1.68-6.56,1.31-10.39,1.93,6.61,6.89,13.08,13.75,19.74,20.42.82.82,2.61.93,3.95.94,8.89.1,17.78.06,26.67.14,1.5.01,3,.42,4.51.64,0,.42.02.85.02,1.27-1.11.3-2.22.84-3.34.85-9.96.1-19.92.24-29.87.02-1.69-.04-3.67-1.43-4.97-2.74-6.67-6.7-13.16-13.58-20.2-20.9,0,1.7,0,2.81,0,3.93-.02,26.44-.03,52.88-.08,79.32-.02,10.34-4.18,15.54-13.79,19.01-2.6.94-4.46,3.93-7.22,6.51,1.56.23,2.29.43,3.02.43,21.22-.03,42.44-.12,63.66-.09,2.35,0,3.92-.75,5.49-2.46,6.48-7.08,13.19-13.96,19.6-21.11,1.05-1.17,1.35-3.32,1.4-5.04.15-5.7,4.06-10.63,9.33-11.36,5.65-.78,10.51,2.56,11.99,8.22,1.12,4.28-.88,9.29-4.68,11.77-3.9,2.53-8.95,2.22-12.55-.79-.72-.6-1.39-1.27-2.36-2.17-4.48,4.71-8.6,9.79-13.47,13.99-6.71,5.79-9.59,12.44-8.63,21.39.75,7.03.16,14.21.08,21.33-.01,1.2-.47,2.39-.72,3.58-.45-.06-.91-.12-1.36-.17v-34.58c-1.99,0-3.36,0-4.74,0-20.51.03-41.02.26-61.52-.06-5.46-.09-9.35,1.35-12.24,6.32,5.45,5.76,11.45,11.33,16.49,17.68,4.74,5.98,10.12,8.38,17.67,7.45,5.25-.65,10.66,0,15.98-.21,1.19-.05,2.72-.97,3.43-1.96,2.03-2.83,5.33-3.89,7.99-2.18,2.57,1.65,3.24,5.39,1.41,7.81-2.09,2.75-5.46,2.81-8.45.44-1.08-.85-2.61-1.56-3.95-1.58-8.3-.12-16.6.11-24.89-.12-1.87-.05-4.15-1.01-5.46-2.33-6.52-6.55-12.8-13.34-19.12-20.09-.8-.85-1.38-1.9-2.3-3.19-7.76,8.15-14.89,15.63-22.01,23.11-.39-.37-.79-.73-1.18-1.1,8.79-9.67,17.58-19.34,26.83-29.51h-108.11c9.06,10.12,17.75,19.82,26.44,29.52-.32.31-.64.62-.96.94-7.63-6.86-14-15.02-21.42-22.36-7.09,7.52-14.05,14.77-20.84,22.17-1.92,2.09-3.9,3.06-6.78,2.98-6.63-.19-13.28-.15-19.91.02-1.44.04-3.09.74-4.24,1.64-2.8,2.21-6.07,2.21-8.2-.35-1.98-2.38-1.42-6.05,1.19-7.8,2.77-1.85,5.77-.86,7.78,2.27.55.85,1.87,1.67,2.86,1.69,6.99.14,13.99.12,20.98,0,1.18-.02,2.7-.46,3.48-1.27,7.44-7.78,14.75-15.68,22.25-23.7-1.91-2-3.58-3.83-5.36-5.56-.46-.44-1.23-.8-1.86-.8-22.87.05-45.75.14-68.62.24-.34,0-.68.15-1.9.43v34.45c-.55.04-1.11.08-1.66.13-.24-1.34-.67-2.67-.68-4.01-.05-9.96.02-19.92-.07-29.88-.01-1.45-.21-3.31-1.1-4.27-6.73-7.33-13.65-14.48-21.47-22.7-.62,1.19-.9,2.34-1.63,3.03-3.18,3.02-7.57,3.37-11.07,1.04-3.48-2.31-4.89-6.31-3.63-10.26,1.25-3.91,4.81-6.5,8.83-6.42,4.15.09,8.04,2.94,8.53,7.14.38,3.3,2.13,5.32,4.24,7.45,6.15,6.25,12.29,12.52,18.22,18.98,1.64,1.79,3.28,2.32,5.54,2.31,20.39-.05,40.78-.03,61.17-.02,1.29,0,2.58,0,4.19,0-2.3-3.38-4.07-6.6-8.68-7.87-6.72-1.84-10.59-6.95-11.4-13.96-.42-3.64-.44-7.33-.45-11.01-.07-24.31-.08-48.61-.12-72.92,0-1.26,0-2.52,0-4.12-7.06,7.43-13.86,14.46-20.48,21.66-1.77,1.92-3.6,2.67-6.18,2.66-24.3-.09-48.6-.07-72.9-.09-1.51,0-3.03,0-4.79,0v24.88h25.84c.08.39.16.78.24,1.17-.89.36-1.78,1.04-2.68,1.05-12.21.06-24.42.03-36.63-.02-.9,0-1.81-.43-2.71-.66.03-.41.07-.81.1-1.22h12.79v-25.14c-3.67,0-7.11.17-10.51-.1-1.04-.08-2.82-1.34-2.84-2.1-.2-6.87-.11-13.75-.03-20.62,0-.59.56-1.18,1.65-1.85.28,1.23.79,2.46.82,3.7.11,5.21.12,10.43.06,15.65-.02,1.94.65,2.83,2.66,2.77,2.7-.08,5.4-.02,8.2-.02.29-2.31.52-4.19.76-6.07.49-.04.99-.07,1.48-.11.3,1.86.6,3.72.96,5.93,1.53.1,3.14.3,4.76.3,24.18-.05,48.37-.09,72.55-.26,1.45-.01,3.27-.76,4.28-1.79,6.4-6.49,12.62-13.15,19.4-20.29-2.23-.19-3.97-.11-5.58-.53-2.65-.7-5.23-1.71-7.82-2.62-.66-.23-1.27-.84-1.9-.84-7.55-.06-15.11-.04-22.84-.04,0,1.65.01,2.57,0,3.49-.09,7.37-3.49,10.54-10.84,10.23-3.2-.13-6.4-.13-9.6-.17-7.26-.09-10.07-2.79-10.4-10.02-.04-.81-.12-1.62-.18-2.35-7.91-2.2-10.02-5.02-10.04-13.24,0-2.85,0-5.69.01-8.54.01-8.56,1.6-10.75,10.01-13.45-.38-8.63-.76-17.34-1.15-26.39h-29.56c0,3.57,0,7.19,0,10.82,0,3.79.11,7.59-.02,11.38-.12,3.43.65,7-.51,10.3-.43-.03-.87-.06-1.3-.09v-34.78h31.36c.12-2.57.22-4.74.36-7.69h-31.38l-.19-1.49c1.18-.26,2.37-.75,3.55-.76,8.06-.06,16.13-.2,24.18.06,3.49.12,4.74-1.08,4.43-4.4-.12-1.27-.02-2.55-.02-4.27-10.86-.2-21.56.11-32.24-.11-.03-.57-.05-1.14-.08-1.71,1.37-.23,2.73-.66,4.1-.67,8.53-.1,17.07-.22,25.6-.09,2.75.04,3.69-1,4.03-3.56.48-3.51,1.27-6.98,2.07-10.44.47-2.02.11-3.5-1.48-5.02-3.67-3.53-6.99-7.43-10.72-10.89-1.2-1.11-3.23-1.81-4.9-1.84-8.53-.15-17.07,0-25.6-.01-.95,0-1.9-.39-2.85-.6,0-.36-.01-.71-.02-1.07,1.25-.24,2.49-.68,3.74-.69,7.11-.04,14.26-.41,21.32.2,4.23.36,6.68-1.3,8.96-4.21.57-.73,1.23-1.39,2.12-2.39,4.42,4.32,8.69,8.5,13.14,12.85,1.81-4.77,3.71-9.76,5.82-15.31-9.61,0-18.8.05-27.99-.01-8.95-.06-17.93.3-26.86-.18-.02-.53-.05-1.07-.07-1.6,1.49-.2,2.98-.55,4.48-.56,15.29-.12,30.59-.33,45.88-.16,4.22.05,7.4-.41,8.57-5.06.25-.99.98-1.85,1.88-3.48h-60.81c-.07-.52-.13-1.04-.2-1.56,1.39-.27,2.78-.77,4.17-.78,18.02-.05,36.04-.09,54.06.05,2.91.02,4.62-.72,6.19-3.34,10.45-17.38,24.5-31.59,39.83-44.64,2.43-2.07,4.94-4.06,7.44-6.04.34-.27.86-.31,1.35-.47.09,4.77-1.07,8.31-5.23,11.51-27.72,21.31-46.77,48.65-55.9,82.63-3.97,14.77-5.29,29.82-4.77,45.06.02.57.18,1.14.32,1.99,3.69-.81,7.33-1.38,10.78-2.5.86-.28,1.6-2.36,1.6-3.61-.03-17.49,2.72-34.53,9.44-50.67,18.59-44.66,51.28-73.06,98.68-83.77,7.34-1.66,15.01-1.99,22.55-2.52,2.96-.21,3.82-1.09,3.71-3.97-.24-6.63-.22-13.28-.21-19.92,0-1.9-.59-2.84-2.55-3.48-6.66-2.19-10.35-8.49-9.07-14.97C220.5,4.66,226.2-.12,232.32,0c6.51.13,11.97,5.18,12.96,11.97.97,6.65-3.81,12.74-11.71,14.75v26.1c4.52.37,8.99.56,13.41,1.11,44.97,5.66,78.92,28.34,102.22,66.95,12.64,20.94,18.7,43.91,18.74,68.37,0,3.84,1.09,5.62,4.98,5.87,2.43.15,4.82.9,7.5,1.43,0-6.79.42-13.2-.07-19.53-2.48-32.15-13.97-60.8-34.92-85.3-7.35-8.6-15.8-16.38-24.48-23.67-4.26-3.57-5.82-7.25-5.67-12.92,1.17.81,2.11,1.37,2.94,2.06,17.56,14.66,33.67,30.64,45.44,50.49,1.23,2.07,2.79,2.18,4.74,2.18,17.9-.07,35.8-.14,53.7-.15,1.51,0,3.03.36,4.49,1.29-9.9,1.72-19.83.98-29.71,1.1-10.03.12-20.06.03-30.17.03.13.62.16.83.22,1.04,1.9,7.07,6.81,8,13.42,7.75,14.09-.52,28.21-.16,42.32-.11,1.3,0,2.6.29,3.89,1.12-5.77,1.72-11.66.95-17.48,1.09-6.04.15-12.09.04-18.14.04-6.04,0-12.08,0-18.6,0,2,5.09,3.86,9.85,5.87,14.99,3.98-4.18,7.77-8.17,11.46-12.05.59.23.91.25,1,.4,3.42,5.46,8.6,6.12,14.46,5.74,5.67-.36,11.38-.1,17.07-.08,1.37,0,2.74.15,4.11.23.07.44.14.87.22,1.31-1.26.25-2.52.7-3.78.72-8.3.08-16.6-.05-24.89.18-1.66.04-3.65.93-4.86,2.08-3.67,3.52-7.08,7.32-10.47,11.13-.58.65-.9,1.89-.75,2.77.74,4.43,1.81,8.81,2.49,13.25.34,2.25,1.71,2.19,3.3,2.19,8.06.01,16.12.02,24.18.08,1.47.01,2.94.3,4.42.46.05.41.1.82.16,1.24-1.29.26-2.58.72-3.87.75-7.59.13-15.17.15-22.76.21-1.39.01-2.79,0-4.15,0-.15.77-.3,1.11-.27,1.43q.74,7.26,8.16,7.22c6.28-.02,12.55-.05,18.83.01,1.28.01,2.56.41,3.85.62-.02.54-.05,1.09-.07,1.63Zm-183.72,24.71c-16,0-32-.02-48,.01-5.42,0-7.36,1.9-7.37,7.18-.06,29.51,0,59.03-.19,88.54-.04,6.77,2.57,11.22,8.88,13.8,7.1,2.9,10.64,8.37,10.55,16.1-.05,4.74-.13,9.48-.07,14.22.07,5.38,2.26,7.61,7.59,7.61,19.08,0,38.16-.05,57.24-.12,4.89-.02,6.88-1.95,7.01-6.89.12-4.38.15-8.78-.08-13.15-.47-8.91,3.27-14.94,11.59-18.31,5.26-2.13,7.8-6.25,7.79-11.98-.05-29.87-.04-59.74-.1-89.61-.01-5.67-1.83-7.38-7.55-7.39-15.76-.02-31.53,0-47.29-.01Zm41.19,147.29c6.84,0,13.45.03,20.07,0,8.91-.05,13.04-4.18,13.04-13.04,0-56.55.03-113.11-.07-169.66,0-5.3-.35-10.72-1.48-15.88-5.99-27.37-22.2-46.45-48.51-55.78-26.54-9.41-51.33-4.49-72.91,13.52-18,15.03-26.1,35.06-26.12,58.36-.05,56.32,0,112.63.02,168.95,0,1.53.14,3.08.41,4.59.94,5.27,5.02,8.8,10.37,8.87,6.52.08,13.04.05,19.56.03.89,0,1.79-.23,2.67-.35,0-7.16-.07-14.03.02-20.9.08-5.67-2.44-9.46-7.66-11.55-8.25-3.3-11.87-9.45-11.85-18.29.11-37.35.03-74.69.09-112.04.02-10.31-.59-20.72.58-30.91,5.28-45.97,59.86-68.92,96.91-40.9,16.29,12.32,24.43,28.95,24.46,49.37.05,44.22-.15,88.45.01,132.67.04,9.74-3.27,16.65-12.55,20.48-4.8,1.98-7.2,5.84-7.09,11.24.14,6.87.03,13.74.03,21.22ZM99.73,192.81c3.26-.67,5.67-1.26,8.1-1.65,2.42-.39,3-1.66,3.21-4.08.69-7.88,1.21-15.86,2.87-23.57,13.09-60.76,70.97-102.17,132.25-94.63,33.64,4.14,60.83,20.06,81.75,46.55,16.69,21.12,25.18,45.34,25.92,72.27.03,1.13.52,3.03,1.21,3.24,3.07.94,6.29,1.39,10.08,2.15-1.1-51.04-21.26-91.32-64.57-117.39-46.83-28.19-95.14-27.24-140.92,2.44-40.68,26.38-59.35,65.81-59.89,114.67Zm212.64,17.1c2.35,0,4.1.04,5.85,0,5.35-.16,10.13.9,13.36,5.74.38.57,1.33,1.07,2.03,1.09,4.6.1,9.2.05,13.69.05,1.08-2.69.21-3.87-2.21-4.24-2.22-.34-4.41-.83-6.62-1.23-2.08-.37-3.07-1.23-2.45-3.64.73-2.83,1.01-5.78,1.49-8.69-1.17-.6-2.14-1.03-3.04-1.57-6.9-4.19-8.1-12.88-2.76-17.7,4.38-3.96,7.86-8.76,14.83-6.45-6.74-57.45-61.7-100.7-112.82-99.07v12.64c3.68.45,7.09.78,10.47,1.28,31.02,4.61,58.02,28.85,65.32,59.29,1.83,7.63,2.47,15.66,2.74,23.53.44,12.77.12,25.56.12,38.98Zm-183.82.54c-3.66.83-6.91,1.46-10.07,2.37-.86.25-1.46,1.37-2.19,2.09.82.6,1.62,1.68,2.48,1.72,3.9.2,7.82.21,11.72.07.85-.03,1.95-.71,2.46-1.42,2.5-3.47,5.84-5.04,10.04-5.02,2.79.02,5.59,0,8.65,0,0-9.31-.16-18.07.04-26.82.21-9.34.07-18.77,1.3-28,4.42-33.22,30.35-60.32,63.21-66.65,4.84-.93,9.77-1.44,14.63-2.14v-12.71c-61.25-.32-107.22,49.94-112.49,98.96,4.84-1.11,8.17,1.34,11.1,4.69.94,1.07,1.95,2.07,2.92,3.11,3.73,4,3.88,9.67.15,13.73-1.65,1.8-3.7,3.22-5.58,4.81.52,3.61,1.05,7.22,1.63,11.22Zm55.03-12.21h97.33v-30.91c-3.99,0-7.67-.22-11.29.1-1.67.15-3.62.99-4.8,2.17-4.62,4.59-8.96,9.46-13.46,14.17-.84.88-1.99,1.46-3,2.18-.23-.24-.46-.48-.69-.72.3-.68.43-1.52.91-2.03,5.23-5.65,10.46-11.3,15.85-16.8.85-.87,2.5-1.27,3.81-1.32,4.22-.16,8.46-.06,12.64-.06.91-9.7-.72-11.41-9.43-10.72-2,.16-2.85.94-2.58,2.85.39,2.77-.96,3.45-3.47,3.41-6.99-.1-13.98-.07-20.97.06-1.25.02-2.72.5-3.69,1.27-5.5,4.31-11.48,4.36-16.95.15-1.09-.84-2.66-1.46-4.02-1.48-7.22-.12-14.45-.06-21.67.06-2.16.04-3.43-.58-3.42-2.91.01-2.53-1.16-3.46-3.74-3.39-7.37.2-6.92-1.12-7.37,6.64-.07,1.25-.18,2.49-.3,4.07,4.07,0,7.74-.22,11.37.1,1.71.15,3.71.94,4.91,2.12,4.99,4.89,9.75,10.01,14.54,15.1.77.81,1.23,1.91,1.84,2.87-.29.26-.57.53-.86.79-.94-.67-2.02-1.22-2.81-2.04-4.61-4.77-9.13-9.63-13.74-14.39-.87-.89-2-2.06-3.08-2.13-3.86-.26-7.75-.1-11.85-.1v30.88Zm-52.08,24.88c-.56-.25-.77-.42-.98-.42-17.06-.25-34.11-.52-51.17-.69-3.02-.03-4.47,1.84-4.49,4.81-.03,3.79-.03,7.58-.04,11.38-.02,5.71,1.47,7.18,7.09,7.05,15.4-.37,30.79-.74,46.19-1.12,1.13-.03,2.25-.16,3.4-.24v-20.75Zm201.33,20.81c17.42.44,34.54.92,51.67,1.25,3.37.07,5-1.85,5.11-5.5.11-3.78.05-7.57.02-11.36-.04-4.96-1.4-6.36-6.3-6.32-15.73.16-31.46.35-47.19.55-1.03.01-2.06.17-3.3.27v21.1Zm-112.87-86.01c-1.13-10.94.05-13.07,9.61-17.92.58-.3,1.22-1.19,1.23-1.82.09-7.07.05-14.15.05-21.17-17.36-2.99-44.94,18.44-45.37,34.96,3.74,1.9,11.05-3.32,10.91,5.95h23.57Zm13.64-41.16v22.85c9.83,3.77,12.14,7.86,10.45,18.22h23.16q.81-5.46,6.21-5.5c1.84-.01,3.69,0,5.65,0-4.84-20.04-26.46-36.21-45.47-35.56Zm60.48,241.26h-123.5c1.54,1.99,2.52,3.67,3.9,4.91,1,.9,2.52,1.7,3.81,1.7,34.82.03,69.65-.25,104.47.09,5.64.06,8.43-2.25,11.32-6.71ZM121.37,191.95c-11.98,2.67-23.73,5.27-35.45,7.97-.71.16-1.79,1.1-1.77,1.65.15,4.66.52,9.32.85,14.46,13.31-2.97,26.03-5.82,39.02-8.72-.9-5.22-1.74-10.08-2.64-15.36Zm257.95,24.21c.43-4.89.93-9.45,1.13-14.02.03-.69-1.26-1.87-2.12-2.1-4-1.04-8.06-1.83-12.11-2.71-7.8-1.69-15.61-3.37-23.64-5.1-.83,5.35-1.58,10.2-2.36,15.21,13.09,2.92,25.85,5.76,39.1,8.71Zm-227.84-.09c-3.26,0-6.33-.2-9.37.06-2.78.23-4.61,1.94-4.65,4.88-.08,7.22-.25,14.45.12,21.65.09,1.66,1.96,4.3,3.4,4.6,3.35.69,6.93.22,10.42.22v-10.5c-3.54,1.5-7.09,2.24-9.13-1.24-.98-1.67-1.05-4.79-.12-6.48,2.16-3.94,5.87-2.69,9.32-1.16v-12.02Zm161.06,31.41c3.08,0,5.78.07,8.47-.02,3.87-.13,5.69-1.72,5.83-5.64.23-6.62.27-13.26.2-19.89-.03-3.01-1.51-5.42-4.71-5.74-3.22-.32-6.49-.07-9.75-.07v11.65c3.31-1.34,6.7-2.6,8.88.75,1.1,1.69,1.64,4.68.9,6.45-1.87,4.47-6,3.47-9.81,2.52v9.99ZM232,23.53c5.77.04,10.41-4.59,10.37-10.33-.04-5.43-4.78-10.07-10.35-10.12-5.13-.05-9.83,4.72-9.94,10.09-.12,5.57,4.43,10.32,9.92,10.36Zm-.1,138.58c5.41.02,9.92-4.31,9.93-9.51,0-5.58-4.28-9.87-9.91-9.93-5.07-.05-9.46,4.36-9.47,9.52,0,5.53,4.17,9.91,9.45,9.92Zm115.73,26.95c0-3.83.18-7.36-.12-10.85-.08-.91-1.53-2.11-2.59-2.46-5.29-1.77-7.9,2.12-10.8,5.4-5.12,5.79-3.71,11.7,3.8,14.7.51-2.64,1.02-5.24,1.58-8.13,2.86.47,5.39.89,8.14,1.34Zm47.87,138.08c-4.42-.07-8.21,3.67-8.18,8.07.03,4.31,3.61,7.93,7.91,8.01,4.5.08,8.07-3.52,8.06-8.11-.02-4.48-3.36-7.9-7.79-7.97ZM117.3,176.03c-.22,4.23-.44,8.32-.67,12.74,2.86-.48,5.25-.89,7.92-1.34.63,2.92,1.21,5.59,1.81,8.37,5.19-2.89,7.29-7.22,5.71-11.21-2.15-5.42-9.19-9.73-14.77-8.55Zm260.97,74.65h-19.11c-.81,5.57-.31,7.16,2.65,7.29,4.61.2,9.24.2,13.84-.07.92-.05,2.13-1.58,2.51-2.67.44-1.25.1-2.77.1-4.55Zm-273.93-.21c-5.69,0-10.86.02-16.04-.01-1.89-.01-3.59-.05-3.45,2.65.12,2.42-.1,4.95,3.42,4.96,4.36.02,8.73.19,13.07-.1,1.06-.07,2.45-1.53,2.89-2.67.5-1.31.12-2.96.12-4.83Zm-40.51,87.13c-.08,3.55,2.57,6.38,6.11,6.53,3.37.15,6.75-3.06,6.77-6.45.02-3.47-3.12-6.58-6.63-6.58-3.26,0-6.18,3.03-6.25,6.49Zm282,60.43c-1.67-.97-2.76-2.12-3.67-1.99-.94.14-1.69,1.52-2.53,2.36.97.84,1.86,2.21,2.92,2.35.78.1,1.77-1.4,3.28-2.72Zm-219.98,4.06c1.37-1.68,2.7-2.6,2.68-3.5-.02-.83-1.36-2-2.34-2.29-.52-.16-2.09,1.18-2.14,1.92-.07.97.88,2.02,1.81,3.87Zm-14.98-186.35c-.16-.4-.31-.8-.47-1.2-2.72.56-5.44,1.11-8.16,1.67,2.89-.12,6.23,2.07,8.63-.47Zm249.87,1.34c.07-.31.15-.63.22-.94-2.34-.47-4.68-.93-7.02-1.4-.09.56-.19,1.12-.28,1.69,2.36.22,4.73.44,7.09.66Z"/>
  <path class="cls-1" d="m22.76,92c0,12.74-.06,24.93.12,37.13.01.91,1.6,1.99,2.67,2.65,3.96,2.44,6.4,7.05,5.84,11.38-.54,4.16-4.12,8.1-8.37,9.2-5.68,1.48-11.67-1.99-13.34-7.72-1.63-5.58,1.58-12,7.31-13.55,2.76-.75,3.16-2.06,3.15-4.45-.07-10.79-.02-21.57,0-32.36.01-4.39.29-4.67,4.6-4.67,17.78-.01,35.55-.05,53.33.04,2.56.01,4.42-.61,6.17-2.59,4.48-5.06,9.32-9.79,13.71-14.91,1.31-1.53,2.28-3.9,2.3-5.9.18-15.88.08-31.76.12-47.65,0-1.36.35-2.72.54-4.07.43.01.85.03,1.28.04.18,1.17.51,2.33.52,3.5.06,16.59.14,33.19,0,49.78-.01,1.79-.94,3.94-2.14,5.29-4.88,5.49-10.12,10.65-15.04,16.1-1.83,2.03-3.76,2.8-6.47,2.79-17.18-.1-34.37-.04-51.55-.03-1.4,0-2.8,0-4.73,0Zm-10.63,49.42c0,4.7,3.61,8.56,8.04,8.6,4.53.04,8.34-3.72,8.38-8.26.04-4.64-3.56-8.47-8.07-8.57-4.49-.11-8.36,3.7-8.35,8.23Z"/>
  <path class="cls-1" d="m362.79,14.61c.17,1.68.47,3.36.47,5.04,0,15.17,0,30.34-.18,45.5-.04,2.95.66,5.14,2.8,7.24,5.07,4.98,9.8,10.31,14.91,15.24,1.35,1.31,3.6,2.37,5.45,2.38,17.42.15,34.83.15,52.25-.05,3.51-.04,4.46,1.11,4.44,4.44-.11,11.97.07,23.94.03,35.9,0,2.16.53,3.33,2.71,4.2,4.46,1.78,6.58,6.01,5.65,10.26-.95,4.33-4.52,7.46-8.66,7.59-4.49.14-8.26-2.51-9.41-6.62-1.27-4.49.66-8.75,4.77-11.16,1.01-.59,2.27-1.89,2.28-2.88.14-12.56.07-25.12.04-37.68,0-.34-.15-.67-.35-1.57-1.4,0-2.88,0-4.37,0-16.82.03-33.65.12-50.47-.03-1.85-.02-4.11-1.03-5.44-2.33-5.76-5.62-11.34-11.45-16.78-17.39-1.15-1.25-2.05-3.26-2.06-4.93-.15-16.71-.1-33.42-.06-50.13,0-1.04.39-2.09.59-3.13l1.42.09Zm79.33,135.34c3.64,0,6.73-3.12,6.76-6.84.03-3.71-3.12-6.97-6.67-6.9-3.83.08-6.75,3.01-6.77,6.8-.01,3.67,3.12,6.94,6.67,6.94Z"/>
  <path class="cls-1" d="m419.97,303.55h14.45c-1.65,3.28-4.37,2.02-6.64,2.21-2.46.21-4.95.05-7.41.05-.59,1.31-1.12,2.48-2.04,4.52-.75-1.94-1.15-2.96-1.63-4.2-8.81-.96-17.9.61-26.79-.77,0-.53.01-1.06.02-1.59h26.87v-24.89c-4.35,0-8.69,0-13.03,0-3.67,0-7.35.08-11.01-.06-.97-.04-1.92-.75-2.88-1.16.94-.46,1.88-1.31,2.82-1.32,6.87-.06,13.74.05,20.61.09,1.06,0,2.11-.1,4.02-.19v-14.86c.58-.02,1.15-.04,1.73-.05,1.45,4.69.04,9.73.92,15.17h15.2l.09,1.58c-4.79,1.86-10.08.02-15.29,1.14v24.35Z"/>
  <path class="cls-1" d="m56.04,228.98h-31.26c-1.25,5.92-3.9,10.35-9.92,11.95-.54.14-.97,1.75-.98,2.69-.07,5.68.01,11.37,0,17.06,0,1.33-.22,2.66-.34,4-.42.06-.85.12-1.27.18-.26-1.15-.75-2.3-.76-3.45-.07-6.62-.04-13.25-.04-19.9-.99-.34-1.75-.63-2.53-.86C3.17,238.88-.15,234.36,0,228.49c.15-5.43,3.75-9.87,9.15-11.29,5.15-1.35,11.2.97,13.5,6.06,1.47,3.25,3.32,3.82,6.48,3.73,7.81-.22,15.63-.11,23.45-.06,1.22,0,2.44.42,3.66.64-.07.47-.13.93-.2,1.4Zm-53.16.11c.02,5.19,4.24,9.26,9.54,9.2,5.14-.06,8.97-4.06,8.97-9.34,0-5.17-3.95-9.11-9.18-9.15-5.43-.05-9.35,3.86-9.33,9.3Z"/>
  <path class="cls-1" d="m402.52,298.01c-1.18.18-2.36.5-3.54.51-20.15.13-40.3.26-60.45.23-1.45,0-3.24-.85-4.29-1.88-4.9-4.81-9.64-9.8-14.33-14.82-.65-.69-.73-1.92-1.07-2.9,1.01.34,2.29.4,2.97,1.08,4.38,4.33,8.74,8.7,12.87,13.27,1.78,1.96,3.66,2.56,6.19,2.56,19.08,0,38.16.1,57.25.19,1.46,0,2.91.25,4.37.38,0,.46.02.92.02,1.38Z"/>
  <path class="cls-1" d="m61.48,296.66c1.22-.11,2.44-.32,3.67-.32,17.89,0,35.78-.11,53.67.16,5.98.09,10.67-1.29,14.37-6.3,2.73-3.69,6.17-6.87,9.4-10.16.61-.62,1.77-.69,2.68-1.01-.23.91-.18,2.08-.74,2.69-4.74,5.14-9.51,10.25-14.47,15.18-1.03,1.02-2.88,1.69-4.35,1.7-20.02.07-40.05.01-60.07-.06-1.41,0-2.83-.34-4.24-.52.02-.45.05-.9.07-1.36Z"/>
  <path class="cls-1" d="m293.55,43.1c5.54-5.8,11-11.67,16.68-17.33,1.11-1.1,3.01-1.9,4.58-1.96,5.43-.19,10.88.12,16.32-.01,1.1-.03,2.55-.86,3.2-1.78,1.91-2.69,4.22-4.23,7.52-3.27,2.86.83,4.58,2.86,4.76,5.94.19,3.09-1.24,5.36-4.08,6.36-3.13,1.11-6,.24-7.69-2.68-1.09-1.89-2.46-2.18-4.35-2.14-5.68.12-11.98-1.38-16.85.63-4.73,1.94-8.01,7.43-11.9,11.38-1.49,1.52-2.8,3.25-4.45,4.56-.91.72-2.35.76-3.55,1.1-.05-.27-.11-.55-.16-.82Zm48.03-14.47c.6-.95,2.17-2.38,2.34-3.96.25-2.31-1.45-3.44-3.93-3.38-2.47.06-3.39,1.33-3.35,3.57.03,2.41,1.24,3.73,4.94,3.77Z"/>
  <path class="cls-1" d="m169.78,43.76c-1.39-.72-3.05-1.17-4.11-2.22-4.38-4.33-8.49-8.94-12.9-13.23-1.13-1.09-3-1.85-4.58-1.95-4.01-.26-8.05-.05-12.08-.06-3.23-.01-6.19-.37-8.4,3.32-1.77,2.97-6.62,2.49-9.09-.1-2.59-2.72-2.33-7.05.58-9.48,2.82-2.36,7.11-2.18,9.08.95,1.52,2.43,3.3,2.82,5.79,2.76,4.74-.12,9.48.12,14.22-.07,2.46-.1,4.18.67,5.93,2.39,5.47,5.39,11.14,10.59,16.73,15.86-.38.61-.77,1.23-1.15,1.84Zm-45.84-23.13c-3.16.82-4.4,2.08-4.34,4.51.06,2.42,1.49,3.85,3.74,3.78,2.41-.07,4.15-1.87,3.79-4.16-.24-1.51-2.07-2.76-3.19-4.13Z"/>
  <path class="cls-1" d="m417.65,227.66c1.24-.25,2.49-.7,3.73-.71,8.29-.04,16.58-.04,24.86.06,2.02.02,3.41-.29,4.61-2.29,2.42-4.04,7.06-5.41,11.1-3.77,4.16,1.69,6.69,6.07,5.91,10.25-.8,4.3-4.65,7.7-8.9,7.84-4.52.15-8.4-2.54-9.31-7.12-.49-2.46-1.7-2.65-3.66-2.63-8.05.09-16.1.11-24.15.11-1.36,0-2.71-.23-4.07-.35-.04-.47-.09-.94-.13-1.41Zm40.9,8.52c3.96.01,6.71-2.72,6.71-6.68,0-3.58-2.96-6.57-6.54-6.6-3.59-.03-6.8,3.21-6.77,6.85.03,3.67,2.85,6.42,6.6,6.43Z"/>
  <path class="cls-1" d="m232.6,430.53c-7.14.03-13.11-5.73-13.1-12.63,0-7.07,5.8-13.03,12.74-13.1,7.02-.08,13.21,6.1,13.15,13.14-.05,6.83-5.88,12.57-12.79,12.59Zm-.02-2.89c5.57-.06,9.91-4.5,9.78-10.03-.12-5.43-4.67-9.89-10.08-9.91-5.42-.01-9.67,4.45-9.64,10.13.04,5.61,4.35,9.87,9.94,9.81Z"/>
  <path class="cls-1" d="m402.6,287.04c-19.67.43-39.33.22-59,.24-.07-.55-.13-1.1-.2-1.65,1.08-.32,2.15-.93,3.23-.93,17.73-.02,35.47.02,53.2.09.96,0,1.91.33,2.87.51-.03.58-.07,1.16-.1,1.74Z"/>
  <path class="cls-1" d="m61.56,285.24h59.19c.09.36.19.71.28,1.07-.86.36-1.72,1.03-2.58,1.03-17.98,0-35.95-.05-53.93-.15-1.03,0-2.07-.45-3.1-.69.05-.42.09-.84.14-1.26Z"/>
  <path class="cls-1" d="m394.41,53.1c.01,4.99-4.19,9.28-9.22,9.41-5.12.13-9.55-4.24-9.56-9.41,0-5.21,4.33-9.65,9.4-9.64,5.09.01,9.37,4.41,9.38,9.65Zm-16.12-.29c-.11,3.77,2.73,6.81,6.49,6.96,3.95.15,7.11-2.83,7.13-6.73.02-3.48-2.95-6.62-6.39-6.78-4.06-.19-7.11,2.58-7.23,6.55Z"/>
  <path class="cls-1" d="m68.59,53.29c-.09-5.17,4.29-9.85,9.23-9.85,4.99,0,9.51,4.58,9.48,9.65-.02,4.94-4.36,9.35-9.29,9.43-4.94.08-9.34-4.23-9.43-9.23Zm2.65-.34c.02,3.9,2.81,6.77,6.62,6.8,3.82.04,6.75-2.84,6.78-6.67.03-3.74-3-6.83-6.68-6.82-3.85.01-6.74,2.88-6.72,6.69Z"/>
  <path class="cls-1" d="m368.65,305.53c-1.93.49-3.16,1.16-4.3,1.03-2.91-.33-4.83.88-6.72,2.97-4.61,5.1-9.43,10.01-14.19,14.96-.84.87-1.84,1.58-2.76,2.37-.32-.23-.64-.46-.96-.68.47-.98.73-2.16,1.44-2.92,5.57-5.99,11.2-11.92,16.88-17.81,2.15-2.23,6.5-2.35,10.61.08Z"/>
  <path class="cls-1" d="m126.31,327.22c-1.7-.97-2.74-1.3-3.4-1.99-4.91-5.14-9.87-10.25-14.55-15.59-2.28-2.6-4.61-4.22-8.21-3.68-1.06.16-2.23-.37-4.05-.72,3.49-2.05,9.07-2.08,10.97-.1,6.23,6.49,12.3,13.15,18.4,19.76.28.3.31.82.83,2.32Z"/>
  <path class="cls-1" d="m282.23,38.5c6.28.51,7.67,2.21,7.96,9.73-7.99-1.97-8.72-1.71-7.96-9.73Z"/>
  <path class="cls-1" d="m298.55,45.83c6.91,1.79,8.61,4.12,8.46,11.67-6.11-1.51-8.74-5.55-8.46-11.67Z"/>
  <path class="cls-1" d="m183.1,38.1c.22,7.68-.62,8.7-8.05,10.07.31-7.84.99-8.71,8.05-10.07Z"/>
  <path class="cls-1" d="m158.26,56.9c.27-7.84-.07-8.34,7.92-11.31.33,6.84-.88,8.58-7.92,11.31Z"/>
  <path class="cls-1" d="m232.37,228.82c10.32.21,19.3,6.95,22.64,16.98,3.15,9.48-.25,19.92-8.31,26.4-1.23.99-2.23,3.02-2.28,4.6-.26,7.93-.1,15.88-.21,23.82-.09,6.82-5.08,11.86-11.81,12.15-6.89.29-12.6-4.52-12.87-11.46-.32-8.17-.17-16.35-.08-24.53.02-2.06-.48-3.4-2.25-4.72-8.59-6.38-11.78-17.28-8.21-27.27,3.43-9.6,13.07-16.19,23.38-15.98Z"/>
  <path class="cls-1" d="m269.1,250.88c-2.61,1.12-2.79-.5-3.06-2.5-2.91-22.3-26.28-36.21-46.91-27.71-12.05,4.96-19.29,14.08-21.39,27.1-.26,1.63.16,4.24-3.05,3.15-.41-15.45,12.73-34.83,35.8-35.98,20.15-1,38.78,16.39,38.6,35.94Z"/>
  <path class="cls-1" d="m214.89,296.58c0,1.54-.02,3.08,0,4.62.16,9.87,7.05,16.68,16.88,16.69,9.93.01,17.14-6.97,17.3-16.76.06-4.03,0-8.06.18-12.08.04-.79.98-1.53,1.5-2.29.54.76,1.52,1.51,1.54,2.29.14,5.09.49,10.22-.03,15.26-1.05,10.18-10.37,17.18-21.59,16.75-10.5-.41-18.25-7.68-18.84-17.91-.26-4.49-.24-9-.13-13.49.02-.88.98-1.73,1.51-2.59.57.92,1.52,1.8,1.63,2.77.25,2.22.08,4.49.08,6.74h-.02Z"/>
  <path class="cls-1" d="m301.07,339.18c0,3.04-2.33,5.28-5.4,5.2-2.8-.08-5.26-2.4-5.36-5.06-.1-3,2.55-5.72,5.53-5.67,2.89.05,5.22,2.51,5.22,5.53Z"/>
  <path class="cls-1" d="m168.24,333.64c2.9.04,5.48,2.64,5.43,5.48-.05,2.92-2.57,5.29-5.59,5.24-2.98-.04-5.27-2.53-5.14-5.59.11-2.82,2.54-5.17,5.3-5.13Z"/>
</svg>