<?xml version="1.0" encoding="UTF-8"?>
<svg id="Layer_1" data-name="Layer 1" xmlns="http://www.w3.org/2000/svg" viewBox="0 0 558.37 528.08">
  <defs>
    <style>
      .cls-1 {
        fill: #99895c;
      }
    </style>
  </defs>
  <path class="cls-1" d="m532.52,527.21c-3,2.33-5.61-.49-7.74-2.83-8.2-9.06-16.4-18.12-24.59-27.19-22.41-24.82-44.84-49.62-67.21-74.49-1.64-1.83-2.85-2.42-5.29-1.17-4.68,2.38-8.1,1.42-11.72-2.41-1.48-1.56-2.95-3.12-4.42-4.68-4.85-5.16-5.19-8.57-1.5-14.57.49-.79.91-1.62,2.22-3.6-2.9-2.55-5.72-5.24-8.76-7.59-.97-.75-2.72-1.19-3.83-.83-6.37,2.07-12.36,1.27-18.36-1.56-1.21-.57-3.38-.41-4.43.39-26.76,20.28-56.73,31.62-89.5,35.06-21.85,2.29-43.46.53-64.74-5.23-1.39-.38-2.8-.69-4.21-1-.23-.05-.5.09-1.24.23-.14,1.12-.43,2.41-.43,3.69-.04,14.52.05,29.05-.12,43.57-.04,3.62,1.09,4.77,4.52,4.7,9.97-.19,19.94-.07,29.91-.07.92,0,1.91-.19,2.73.11.75.27,1.32,1.08,1.97,1.65-.61.6-1.14,1.5-1.86,1.71-1.1.32-2.34.21-3.52.21-9.71.03-19.42.1-29.13.02-2.95-.03-4.27.76-4.79,4.23-1.49,10.02-8.2,17.09-16.9,18.68-9.26,1.69-18.13-1.87-22.19-10.05-2.03-4.08-3.17-9.09-3.24-13.7-.34-23.56-.25-47.13-.15-70.7.01-3.28-1.05-5.15-3.63-6.97-6.4-4.52-12.54-9.45-18.78-14.22-1.35-1.03-2.67-2.1-4.7-3.69-.16,2.57-.35,4.38-.36,6.2-.14,24.11-.2,48.23-.45,72.34-.02,2.01-1.2,4-1.85,6-.62-2.02-1.77-4.04-1.78-6.07-.14-26.03-.17-52.07-.1-78.1,0-3.51-.92-6.06-3.38-8.65-28.89-30.37-46.14-66.73-51.02-109.36-.09-.82-.25-1.62-.37-2.43q-1.06-7.41-8.46-7.41c-11.54.01-23.09.15-34.62-.04-3.17-.05-4.12,1.08-4.09,4.22.1,10.69.03,21.38.02,32.06,0,1.61,0,3.22,0,4.72-3.52,1.21-3.73-.79-3.73-3.09,0-10.41.02-20.83-.02-31.24-.03-6.97-.17-7.06-6.8-7.04-3.67.01-7.35.07-11.02-.11C8.09,246.37.11,238.04.08,226.79c-.12-34.39-.06-68.79-.06-103.18,0-.82-.11-1.76.23-2.42.44-.86,1.28-1.49,1.95-2.21.52.7,1.34,1.32,1.5,2.1.33,1.58.41,3.25.41,4.88.06,33.02.06,66.05.15,99.07.02,8.84,4.63,15.95,12,16.93,6.42.86,13.03.18,20.34.18,0-6.57,0-13.1,0-19.62,0-24.39,0-48.77-.03-73.16,0-3.56-.33-7.13-.14-10.68.07-1.35,1.2-2.63,1.85-3.95.73,1.35,2.09,2.69,2.09,4.04.12,28.64.08,57.28.09,85.91,0,4.66.11,9.32.07,13.98-.02,2.79,1.1,3.81,3.8,3.78,12.86-.12,25.71-.11,38.57-.09,2.27,0,3.7-.42,3.74-3.34.09-6.57.36-13.14.74-19.69.17-2.9-.85-3.81-3.56-3.85-4.04-.05-7.24.12-9.84,4.59-2.99,5.14-11.64,4.95-16.17.56-4.67-4.52-4.76-12.17-.2-16.89,4.56-4.72,11.94-4.41,16.52.72.53.6,1.02,1.26,1.44,1.95.89,1.45,1.49,3.88,2.65,4.21,2.45.69,5.19.43,7.79.23.74-.06,1.85-1.12,2.02-1.91,2.55-11.58,4.97-23.2,7.41-34.81.05-.23-.12-.52-.36-1.41-3.59,0-7.36,0-11.12,0-4.59,0-9.18.05-13.78-.03-5.47-.1-8.48-3.2-8.68-8.9-.09-2.6-.02-5.21-.02-7.81-.01-30.01-.03-60.02-.04-90.03,0-1.1-.23-2.28.1-3.26.33-1,1.22-1.79,1.87-2.67.71.81,1.73,1.52,2.05,2.47.37,1.11.13,2.44.13,3.67.02,31.24.03,62.48.05,93.73,0,7.9.48,8.38,8,8.39,6.95,0,13.91-.09,20.86.02,2.33.04,3.52-.93,4.41-3.13,2.65-6.55,5.59-12.97,8.22-19.53.74-1.83,1.12-3.95,1.15-5.94.11-9.56.04-19.12.04-28.67.03-29.42.06-58.83.1-88.25,0-2.19-.16-4.4.06-6.57.08-.83,1.03-1.57,1.59-2.34.66.7,1.65,1.3,1.9,2.13.34,1.13.15,2.44.15,3.67.01,35.9.02,71.8.03,107.7,0,2.17,0,4.34.9,6.98.8-1.05,1.7-2.03,2.4-3.15,28.59-46.02,68.48-75.08,120.15-85.05,75.63-14.59,150.67,19.96,190.11,88.09,2.3,3.98,4.69,5.56,9.22,5.52,28.6-.23,57.2-.13,85.8-.09,2.06,0,5.28-.94,5.32,2.41.04,3.28-3.13,2.58-5.24,2.59-27.68.03-55.37.01-83.05.01-1.68,0-3.36,0-5.78,0,.68,1.83,1.05,3.07,1.58,4.2,7.71,16.28,13.15,33.35,16.1,51.25.44,2.7,1.4,3.69,4.03,3.68,24.93-.12,49.85-.15,74.78-.16,1.42,0,2.83.38,4.25.58,0,.48.02.95.02,1.43-1.22.23-2.44.67-3.65.63-2.73-.09-5.45-.63-8.17-.64-21.65-.06-43.3-.05-64.94-.04-5.17,0-5.01.04-4.73,5.39.45,8.88.87,17.77.9,26.66.01,3.84,1.24,4.84,4.78,4.83,27.55-.13,55.1-.1,82.65-.06,2.19,0,5.77-1.01,5.75,2.36-.02,3.62-3.71,2.55-6,2.56-27.68.08-55.36.14-83.04.02-3.36-.01-4.6,1.09-4.91,4.52-2.63,29.82-11.69,57.38-27.11,82.63-1.49,2.43-1.64,4.13-.48,6.93,1.68,4.03,2.56,8.55,3.05,12.95.3,2.74.6,5.04,2.77,6.8.82.67,1.57,1.48,2.21,2.34,2.95,3.96,5.72,6.98,11.14,3.22,3.26-2.26,7.09-1,9.96,2.14,1.99,2.18,4.01,4.33,6.02,6.49,2.64,2.85,3.55,6.28,1.83,9.78-1.4,2.86,0,4.32,1.57,6.03,13.96,15.25,27.92,30.5,41.9,45.74,17.15,18.7,34.33,37.38,51.47,56.08,3.62,3.95,3.61,6.58-.17,10.52-2.41,2.51-18.18,19.92-22.99,23.66ZM94.05,235.03c-.08,100.09,80.36,179.41,173.84,179.93,94,.52,176.73-77.31,177.08-180.24.36-104.94-79.84-185.14-177.58-184.23-93.13.86-173.71,81.07-173.34,184.54Zm456.49,264.32c-1.07-1.33-1.92-2.52-2.9-3.59-14.85-16.25-29.7-32.51-44.58-48.72-14.98-16.31-30.04-32.54-44.97-48.91-2.22-2.43-3.91-2.66-6.14-.25-4.37,4.72-8.76,9.43-13.31,13.97-2.28,2.28-2.01,4.02.08,6.16,3.18,3.26,6.23,6.66,9.29,10.05,26.87,29.83,53.75,59.65,80.57,89.52,2.08,2.31,3.67,2.42,5.87.16,4-4.12,14.76-16.14,16.08-18.4Zm-371.72-101.09c-.23,1.82-.51,2.98-.51,4.14-.04,23.29-.18,46.57-.02,69.86.07,10.22,7.9,18.21,17.15,18.22,9.38,0,17.03-8.28,17.06-18.71.07-17.94-.07-35.89.1-53.83.03-3.57-1.35-4.9-4.33-6.11-7.92-3.23-15.69-6.89-23.49-10.43-1.87-.85-3.66-1.91-5.97-3.13Zm275.88-16.07c-2.51-2.79-4.48-5.78-7.18-7.59-1.1-.74-4.33.51-5.64,1.86-8.4,8.63-16.6,17.47-24.68,26.43-1.07,1.19-1.83,3.64-1.43,5.14,1.81,6.92,8.37,8.57,13.04,3.55,7.48-8.04,15-16.04,22.43-24.13,1.21-1.32,2.02-3.03,3.47-5.27Zm-38.67,8.28c4.87-4.7,9.53-9.05,13.95-13.64.63-.66.66-3.04.05-3.7-2.06-2.25-4.51-4.1-6.9-5.99-.1-.08-1.08,1.03-1.62,1.62-2.07,2.28-4.05,4.65-6.18,6.85q-7.39,7.62.64,14.84c.09.08.24.1.06.03ZM70.57,212.02c-.16-3.32-1.71-5.14-4.85-5.28-3.1-.14-5.28,2.05-5.27,5.19.02,3.01,2.34,5.4,5.31,5.28,3.16-.14,4.58-2.14,4.81-5.19Z"/>
  <path class="cls-1" d="m78.23,363.52c.03,18.88-13.95,33.52-32.08,33.6-17.42.08-31.93-15.32-31.99-33.96-.06-18.08,14.65-33.58,31.93-33.65,17.93-.07,32.11,14.93,32.15,34.01Zm-5.01-.2c-.05-15.75-12.41-28.64-27.22-28.39-14.57.25-26.8,13.49-26.59,28.79.21,15.11,12.31,27.85,26.53,27.93,14.99.08,27.34-12.73,27.28-28.33Z"/>
  <path class="cls-1" d="m370.83,7.69c14.16,0,28.32-.03,42.48.02,2.86,0,5.05-.34,6.74-3.48,2.51-4.67,8.27-5.48,12.3-2.38,3.85,2.96,4.52,9.37,1.38,13.19-3.23,3.93-9.12,4.47-12.52.46-2.43-2.87-5.02-3.25-8.27-3.24-28.45.09-56.9.07-85.35.07-.92,0-1.95.21-2.72-.16-.81-.39-1.91-1.35-1.9-2.05.01-.73,1.09-1.86,1.88-2.07,1.49-.4,3.12-.32,4.69-.33,13.77-.02,27.53-.01,41.3-.01v-.03Zm57.69,6.46c1.02-1.68,2.76-3.3,2.91-5.06.24-2.84-1.87-4.4-4.57-4.32-2.64.08-4.04,1.93-4.04,4.54,0,3.11,2.08,4.08,5.7,4.83Z"/>
  <path class="cls-1" d="m113.31,486.05c0-1.48,0-2.96,0-4.44.02-27.92,0-55.83.09-83.75.01-3.57-.47-6.24-3.69-8.63-5.03-3.73-5.38-10.46-1.57-15.19,3.56-4.43,10.29-5.02,14.49-1.28,4.3,3.83,4.86,10.51.93,15.02-1.33,1.52-3.37,2.98-5.24,3.23-3.42.46-3.89,2.38-3.88,5.3.06,10.4.04,20.8.03,31.2,0,18.34-.02,36.68-.05,55.01,0,1.19-.12,2.38-.18,3.57-.31-.02-.62-.03-.94-.05Z"/>
  <path class="cls-1" d="m422.46,71.33c-1.25-2.29-2.7-2.73-4.65-2.77-6.54-.11-13.08-.11-19.62-.19-1.35-.02-2.7-.18-4.01-1.2,7.81,0,15.62.17,23.42-.11,2.08-.07,4.41-1.12,6.12-2.43,3.19-2.45,8.92-2.96,10.71.73,5.5,11.35-9.85,11.85-11.96,5.97Z"/>
  <path class="cls-1" d="m158.58,37.52c-2.08.11-4.17.37-6.24.3-2.77-.1-4.74.34-6.2,3.45-1.8,3.83-7.5,4.55-10.63,1.94-3.05-2.55-3.3-7.42-.54-10.62,2.77-3.21,7.92-3.51,10.33.14,2.03,3.08,4.42,3.34,7.36,3.23,1.97-.07,3.93-.01,5.9-.01,0,.53.01,1.05.02,1.58Z"/>
  <path class="cls-1" d="m437.79,233.75c-.04,100.6-81.37,177.09-174.65,173.41-93.29-3.68-165.95-84.47-161.74-180.48,4.41-100.57,82.86-170.12,170.17-168.42,100.69,1.96,166.31,86.07,166.22,175.49Zm-247.75-34.55c-1.15.11-11.68-.03-14.5-.04-17.71-.09-35.42-.03-53.13,0-2.49,0-4.99-.06-7.47.17-3.13.29-4.44,2.97-4.39,8.25.03,3.8,2.81,2.6,4.58,2.61,15.48.06,30.96-.04,46.44-.05,9.71-.01,19.42-.03,29.12.13,1.08.02,2.13,1.21,3.2,1.85-1.09.84-2.1,1.87-3.31,2.46-.75.37-1.81.06-2.72.07-24.52.05-49.05.18-73.57.09-3.52-.01-5.03,1.29-5.12,4.81-.1,3.7-.29,7.39-.41,11.09-.84,25.4,4.47,49.46,14.44,72.51.44,1.01,1.13,1.9,1.7,2.85.31-.09.61-.19.92-.28v-4.79c0-18.22-.09-36.45.03-54.67.07-11.26,7.79-20.53,18.3-20.88,15.86-.53,31.74-.18,47.62-.19,2.39,0,3.54,1.25,3.4,4.32-1.69,0-3.23,0-4.76,0-13.77.01-27.55,0-41.32.04-12.61.03-18.82,6.44-18.86,19.68-.08,21.51-.12,43.02.01,64.53.04,6.41,4.09,11.03,7.76,15.61.65.81,2.4.93,3.64.94,12.07.06,24.14-.09,36.21.09,3.71.06,4.8-1.54,4.76-5.1-.1-10.55-.05-21.1-.01-31.65,0-1.53.29-3.07.44-4.6l1.52-.33c.52,1.53,1.46,3.05,1.49,4.58.16,10.68.18,21.37.11,32.06-.02,3.53.97,5.42,4.74,5.06,2.86-.27,5.8.18,8.64-.21,1.16-.16,2.57-1.46,3.11-2.63.65-1.4.69-3.2.67-4.83-.28-21.09-.4-42.19-1.04-63.27-.3-9.79-6.05-15.88-15.81-15.99-9.44-.11-18.9.13-28.33-.15-4.02-.12-5.22,1.32-5.18,5.4.16,14.8.09,29.59-.06,44.39-.01,1.21-1.25,2.4-1.91,3.6-.7-1.26-2.01-2.52-2.02-3.79-.14-15.48-.14-30.96-.07-46.45.02-5.47,1.91-7.31,7.25-7.33,10.36-.05,20.73-.08,31.09-.01,8.19.06,15.37,5.26,18.02,13.4.95,2.91,1.27,6.16,1.29,9.26.13,20.96.1,41.93.14,62.89.01,5.64.07,5.64,5.53,5.64,11.02,0,22.04-.02,33.05.02,1.56,0,3.18.04,4.66.46,5.24,1.47,7.6,5.36,7.6,12.78,0,11.37-.19,22.74-.25,34.11-.04,7.08,0,14.16,0,21.51h11.26c.15-2.3.44-4.59.42-6.88-.1-13.42-.29-26.85-.39-40.27-.06-7.53-.09-15.06,0-22.59.11-8.94,3.38-12.34,11.95-12.65,1.05-.04,2.1,0,3.15.01,3.94.02,7.88-.08,11.8.1,3.72.17,5.73-1.02,5.21-5.35-.26-2.16-.08-4.38.02-6.57.24-5.22,3.3-8.66,8.3-9.2,2.21-.24,4.45-.22,6.68-.23,5.91-.04,6.03-.02,6.04-6.09.04-17.81.02-35.62-.04-53.43-.02-6.32-.18-6.46-6.2-6.46-24.4,0-48.8.02-73.2.03-1.26,0-2.51,0-3.87,0,.11-4.99,3.48-4.36,5.98-4.36,24.79-.01,49.59.07,74.38.23,6.05.04,6.68.85,6.7,7.25.04,19.32.09,38.64,0,57.96-.02,3.23.85,4.86,4.14,4.81,6.69-.09,13.38-.05,20.07-.04,2.55,0,3.84-1.06,3.76-3.93-.14-5.07.05-10.14-.17-15.2-.08-1.81-1.43-3.61-1.34-5.36.25-4.57,1.04-9.11,1.5-13.67.72-7.26,3.93-13.03,10.43-15.65,4.14-1.67,8.89-2.21,13.39-2.34,10.87-.31,21.76-.09,32.65-.08,2.75,0,5.53-.19,8.25.14.99.12,1.84,1.52,2.76,2.33-1.01.84-1.91,1.98-3.05,2.44-1.03.41-2.33.09-3.51.09-14.42,0-28.84-.12-43.25.07-6.8.09-12.51,5.75-13.31,12.72-.3,2.57.01,5.22-.24,7.8-.37,3.73,1.31,4.77,4.58,4.7,7.61-.15,15.22-.22,22.82-.04,1.83.04,5.25,1.29,5.21,1.73-.29,3.38-3.15,2.49-5.2,2.52-8,.12-16.01,0-24,.2-1.12.03-3.11,1.41-3.15,2.24-.27,6.13-.15,12.28-.15,18.6,1.48.26,2.69.28,3.75.69,1.27.5,2.42,1.33,3.62,2.02-1.26.78-2.51,1.56-3.78,2.32-1.18.71-3.36,1.33-3.41,2.11-.32,4.72-.16,9.47-.16,14.34,2.63.26,4.71.46,6.79.66,2.02.19,4.34-.02,4.12,4.02-2.46,0-4.79.18-7.08-.04-4.21-.4-4.16,2.48-4.29,5.5-.15,3.37,1.48,4.05,4.34,4.01,11.15-.17,22.3-.33,33.45-.11,3.72.07,6.05-1.09,8.09-4.3,13.27-20.94,22.38-43.36,25.61-68.55,1.76-13.72,1.76-27.24,1.1-40.92-.18-3.67-1.3-5.27-5.17-5.2-12.98.23-25.97.09-39.25.09,1.25-1.15,29.33-3.81,42.74-3.81,0-1.59.19-2.84-.03-4.01-3.38-17.55-8.85-34.32-17.08-50.08-1.26-2.41-2.93-3.03-5.41-3.03-22.96.07-45.92.07-68.87-.05-1.3,0-2.59-1.27-3.89-1.94,1.32-.8,2.58-1.76,3.98-2.35.79-.33,1.81-.07,2.73-.07,20.73-.02,41.45-.03,62.18-.08,1.45,0,2.9-.26,4.99-.45-1.45-2.33-2.57-3.85-3.41-5.52-1.98-3.94-4.83-5.23-9.22-5.18-20.99.25-41.98.08-62.97,0-2.51,0-4.8-.11-4.86,3.56-.01.65-1.07,1.28-1.65,1.92-.59-.61-1.69-1.24-1.67-1.84.13-4.12-2.55-3.68-5.07-3.68-22.17.02-44.34.03-66.51.04-1.05,0-2.27.34-3.11-.11-1.1-.59-1.9-1.79-2.83-2.73.93-.77,1.76-1.82,2.82-2.22,1.05-.39,2.33-.13,3.51-.13,20.73,0,41.46-.01,62.18-.02,9.38,0,12.51.01,17.58,0,19.94-.02,39.88-.09,59.82-.17,1.19,0,2.39-.25,4.31-.47-1.73-2.32-2.84-4-4.12-5.51-12.68-15.06-27.47-27.36-44.16-37.29-3.48-2.07-10.6-4.65-12.5-5.62-12.05-6.21-24.85-10.09-38.09-12.6-13.21-2.51-26.51-2.82-39.76-1.71-26.98,2.26-52.11,10.89-74.92,26.22-18.28,12.29-33.67,27.86-46.1,46.54-.91,1.37-1.52,2.95-2.56,5,2.42.19,4.08.42,5.74.43,9.31.05,18.63-.02,27.94.08,11.98.14,20.4,9.04,20.52,21.63.07,7.12.01,14.25.03,21.37.01,7.92,8.41,6.82,9.13,6.45,0-1.76,0-3.66,0-5.56-.01-17.54-.03-35.08-.04-52.61,0-1.23-.24-2.59.16-3.66.36-.94,1.48-1.57,2.26-2.33.59.79,1.4,1.5,1.72,2.39.3.85.08,1.89.08,2.85.02,17.95.03,35.9.05,53.85,0,1.75,0,3.51,0,5.31,2.31.52,4.15.94,6.09,1.38-3.44,3.01-11.25,3.02-17.04,3.59Zm112.99,157.75l-1.24-.57c-.36-1.15-1.01-2.3-1.05-3.46-.14-4.65-.18-9.31-.06-13.96.08-2.94-.48-4.85-3.86-4.37-2.86.41-6.81-1.23-6.79,4.22.02,3.7.09,7.4-.1,11.09-.04.79-1.13,1.51-1.73,2.27-.62-.72-1.7-1.4-1.76-2.17-.23-2.86-.14-5.74-.13-8.62.04-10.41.45-10.92,10.36-11.03,2.66-.03,4.2-.51,4.06-3.81-.13-3.07.06-5.85-4.14-5.64-5.5.27-11.02.11-16.5.49-5.77.4-7.36,2.23-7.37,8.24-.05,21.64.07,43.28-.06,64.93-.02,4.07,1.41,5.08,5.1,4.89,24.79-1.29,47.87-8.78,69.74-20.72,6.54-3.57,6.56-3.69,5.58-11.54-.21-1.73-.04-11.33.16-13.8.22-2.74-.71-3.94-3.54-3.92-13.64.12-27.28.12-40.92.02-2.67-.02-3.74.93-3.93,3.72-.09,1.29-1.18,2.5-1.81,3.74Zm-100.13-4.63c0-4.51-.04-9.01.01-13.52.03-2.8-.83-4.36-3.87-4.15-3,.21-6.04.15-9.05-.01-2.69-.15-3.82.97-3.8,3.77.06,11.37.06,22.75.04,34.12,0,2.74,1.05,4.48,3.44,5.84,13.2,7.49,27.07,13.09,41.66,16.8,2.22.56,4.48.93,7.29,1.49,0-2.26,0-3.87,0-5.48,0-13.84-.02-27.68-.02-41.52,0-1.1-.23-2.3.13-3.26.37-1,1.32-1.76,2.02-2.63.65.91,1.56,1.74,1.87,2.76.34,1.13.13,2.44.13,3.67,0,13.84,0,27.68,0,41.52,0,6.07.03,5.95,5.78,6.74,3.49.48,4.98-.54,4.94-4.49-.14-15.48-.05-30.97-.06-46.45,0-2.19.11-4.4-.14-6.57-.47-4.05-2.68-6.27-6.48-6.29-12.33-.07-24.66.03-36.99-.02-2.22,0-3.08.94-3.08,3.15.01,3.29.19,6.61-.19,9.85-.22,1.85-3.13,4.89-3.62,4.66Zm-89.99-158.19c1.16.31,1.65.56,2.14.56,21.78.03,43.55.02,65.33.07,2.24,0,3.01-1.12,3-3.27-.03-8.91.3-17.83-.11-26.71-.44-9.37-7.39-15.8-16.38-15.87-10.49-.07-20.99.03-31.48-.14-3.15-.05-5.32,1.06-6.63,3.99-3.82,8.54-7.86,16.98-11.33,25.67-1.98,4.97-3.03,10.35-4.53,15.69Zm68.88,179.27c.37-1.89.79-3.04.79-4.19,0-10.4-.07-20.8-.11-31.21-.01-2.63-1.31-3.48-3.74-3.46-11.28.11-22.56.08-33.84.14-.83,0-1.65.31-3.3.63,11.88,14.89,24.83,27.34,40.2,38.09Zm123.01-56.6c15.39,0,30.27,0,45.15,0,2.45,0,3.52-1.25,3.44-3.82-.1-3.14-.1-6.29-.02-9.43.08-2.96-1.2-4.17-4.02-4.12-6.15.11-12.3.21-18.45.05-3.68-.1-5.67,1-5.52,5.26.04,1.1-1.23,2.25-1.9,3.38-.74-1.12-2.21-2.32-2.1-3.34.55-5.01-2.06-5.77-5.87-5.38-1.43.15-2.89.05-4.31.25-4.83.67-6.32,2.43-6.41,7.48-.05,2.85,0,5.71,0,9.67Zm.69,28.15c.86.12,1.76.34,2.66.35,13.9.06,27.79.06,41.69.16,4.27.03,3.43-3.11,3.51-5.73.08-2.73.13-5.17-3.72-5.13-12.2.14-24.4.05-36.59.04q-9.11-.01-8,9.52c.01.12.13.23.46.79Zm23.54-14.61v.02c6.95,0,13.9-.1,20.85.05,2.87.06,3.67-1.3,3.52-3.98-.14-2.56.5-5.55-3.39-5.53-14.03.06-28.06.18-42.08.18-3.64,0-3.36,2.52-3.38,5.03-.02,2.6.4,4.4,3.64,4.29,6.94-.22,13.9-.07,20.85-.07Zm67.19,4.71h-38.46v10.16c9.85,0,19.39.03,28.93-.05.82,0,1.89-.46,2.42-1.09,2.22-2.62,4.28-5.39,7.11-9.03Zm-11.99,14.55c-8.8,0-16.6-.07-24.4.11-.78.02-2.04,1.55-2.19,2.52-.77,4.98-.04,5.79,4.74,5.91,2.35.06,4.76-.28,7.06.09,6.6,1.07,10.4-3.01,14.79-8.64Zm-14.03,13.96c-.11-.54-.22-1.08-.33-1.62-3.44,0-6.88-.11-10.31.1-.67.04-1.73,1.29-1.8,2.07-.23,2.52-.09,5.08-.09,8.85,4.73-3.55,8.63-6.48,12.53-9.4Z"/>
  <path class="cls-1" d="m314.59,182.34c20.98,0,41.97-.05,62.95.05,3.51.02,6.06-.52,7.93-4.31,2.17-4.4,6.82-5.66,11.23-4.12,4.37,1.52,7.48,6.07,7.26,10.63-.23,4.77-3.52,8.9-7.96,10.02-4.51,1.14-9.15-.51-11-4.88-1.67-3.95-4.51-3.51-7.45-3.51-33.57.01-67.14.04-100.72.08-8.92.01-17.84.17-26.75.04-1.39-.02-2.75-1.28-4.13-1.96,1.37-.7,2.74-2.01,4.11-2.02,21.51-.13,43.01-.09,64.52-.09v.07Z"/>
  <path class="cls-1" d="m240.39,314.45c-2.6.2-5.26.15-7.78.75-3.12.73-4.43-.84-5.05-3.52-.3-1.3-.17-2.72-.17-4.09,0-21.08-.01-42.16.08-63.24,0-1.66.8-3.32,1.22-4.99.55.08,1.1.16,1.65.24.21,1.66.61,3.31.62,4.97.11,19.44.16,38.88.22,58.31,0,1.23.07,2.47.01,3.7-.17,3.51,1.01,5.51,4.76,4.95,1.03-.15,2.1-.1,3.14.02,3.22.37,5.47-.04,6.64-4.12,1.28-4.46,5.96-6.55,10.58-5.86,4.04.6,7.09,3.91,7.87,8.54.75,4.44-1.28,8.96-4.98,11.15-3.46,2.04-9.15,1.63-11.6-1.69-2.5-3.39-6.9-5.15-7.22-5.12Z"/>
  <path class="cls-1" d="m229,148.18c.16,2.27.35,3.84.36,5.4.02,11.91,0,23.81.01,35.72,0,5.57.34,5.84,5.47,5.79,15.85-.15,31.71-.25,47.56-.37.78,0,1.7-.21,2.32.14.8.45,1.37,1.35,2.04,2.06-.7.68-1.3,1.68-2.13,1.96-1.08.36-2.33.19-3.51.19-15.46,0-30.93.02-46.39-.04-1.54,0-3.14-.22-4.6-.69-3.47-1.12-5.14-3.22-5.02-7.51.34-11.9.11-23.81.16-35.72,0-2.54-.11-5.24,3.73-6.94Z"/>
  <path class="cls-1" d="m284.29,214.65c-13.5,0-27.01.06-40.51-.1-1.28-.02-2.55-1.44-3.82-2.21,1.27-.71,2.54-2.04,3.82-2.04,27.14-.15,54.28-.19,81.41-.09,1.29,0,2.58,1.41,3.87,2.17-1.29.75-2.57,2.14-3.86,2.16-13.63.16-27.27.1-40.9.1v.02Z"/>
  <path class="cls-1" d="m317.33,146.34c.55,3.38-1.55,3.46-3.54,3.5-8.91.22-17.82.47-26.74.55-11.8.1-23.6.04-35.4.05-1.18,0-2.47.23-3.5-.19-.91-.37-1.54-1.5-2.29-2.29.76-.61,1.46-1.35,2.3-1.78.54-.27,1.29-.1,1.94-.1,21.37,0,42.74,0,64.11,0,1.02,0,2.04.17,3.12.27Z"/>
  <path class="cls-1" d="m345.7,249.39c0,9.3.12,18.6-.09,27.89-.05,2.04-1.29,4.06-1.99,6.09-.67-1.96-1.89-3.92-1.91-5.89-.19-18.74-.17-37.48-.21-56.21,0-1.09-.13-2.25.15-3.26.21-.76,1-1.33,1.53-1.99.6.6,1.56,1.1,1.74,1.82.34,1.43.33,2.98.34,4.48.02,9.03.01,18.05.01,27.08.14,0,.29,0,.43,0Z"/>
</svg>