<?xml version="1.0" encoding="UTF-8"?>
<svg id="Layer_1" data-name="Layer 1" xmlns="http://www.w3.org/2000/svg" viewBox="0 0 500.32 523.15">
  <defs>
    <style>
      .cls-1 {
        fill: #99895c;
      }
    </style>
  </defs>
  <path class="cls-1" d="m250.24,287.09c-1.59,8.14-3.1,16.3-4.8,24.42-1.12,5.37-2.37,10.71-3.8,16-.76,2.84-1.07,5.49.12,8.27,3.35,7.85,3.02,15.63.67,23.85-2.09,7.3-2.82,15-3.87,22.57-.53,3.84.15,7.35,2.94,10.66,3.73,4.43,4.42,9.62.85,14.74-2.58,3.69-3.32,7.76-3.4,12.24-.13,7.37-5.36,11.34-12.29,9.89-3.74-.78-5.27-2.25-5.15-6.12.09-2.94.84-5.9,1.65-8.75,1.14-3.99,2.76-7.84,3.93-11.82,2.41-8.15,1.02-16.12-1.35-24.06-2.37-7.95-4.84-15.9-6.72-23.98-1.75-7.52-1.91-15.2.23-22.75,2.28-8.07,2.09-15.9-.55-24-4.18-12.87-6.88-26.1-5.52-39.78.43-4.29,1.22-8.56,2.13-12.77,1.01-4.66,3.25-9.02,3.2-13.98-.01-1.56.58-3.51,1.61-4.63,5.01-5.43,3.58-11.93,2.66-17.94-1.01-6.6-2.04-13.13-1.9-19.82.03-1.43-.27-3.08-.99-4.28-3.92-6.53-5.26-13.61-4.8-21.08.24-3.79-.79-7.19-2.29-10.6-1.59-3.61-3.8-6.5-7.11-8.74-8.15-5.52-14.43-12.8-18.89-21.57-2.48-4.87-5.89-8.85-10.29-12.02-7.82-5.64-14.08-12.73-18.99-20.97-4.3-7.22-9.66-13.5-15.76-19.27-3.12-2.95-6.03-5.85-10.28-7.34-2.6-.91-5.67-2.25-5.49-6.59,1.24,0,2.34-.12,3.4.03,1.1.16,2.15.59,3.57.32-1.74-1.57-3.47-3.14-5.48-4.96.94-1.14,1.72-2.09,2.75-3.35,2.46,1.6,4.64,3.02,6.82,4.43.17-.16.34-.31.51-.47-1.69-1.81-3.38-3.63-5.38-5.78,1.23-1.13,2.38-2.19,3.73-3.44,2.42,2.16,4.61,4.12,6.79,6.07l.92-.61c-1-1.72-1.99-3.44-2.99-5.15-1.15-1.97-1.5-3.76,1.4-5.02,2.97,3.34,6.3,6.56,8.93,10.29,1.06,1.5,1.09,4.18.68,6.15-.8,3.88.17,6.84,3.11,9.36,5.8,4.98,11.3,10.36,17.4,14.95,7.81,5.88,14.84,12.25,19.62,20.97,1.48,2.69,3.9,4.95,6.19,7.1,4.6,4.33,9.34,8.54,14.17,12.61,1.61,1.35,3.59,2.52,5.6,3.1,6.5,1.9,11.75,5.37,15.64,11.38,1.85-.11,3.8-.22,6.27-.37,1.1-5.49.56-10.64-2.43-14.96-5.73-8.27-2.66-16.33.43-24.03,2.43-6.06,10.12-8.87,16.53-7.5,6.97,1.49,12.06,7.4,12.94,14.78.25,2.07.85,4.13,1.55,6.11.85,2.39-.22,4.14-1.38,6.02-3.16,5.15-5.89,10.46-5.23,16.81.07.65.24,1.29.46,2.49,1.84.16,3.74.32,5.74.5,4.06-6.63,9.84-10.41,17.17-12.11,1.5-.35,2.89-1.6,4.1-2.68,1.98-1.78,3.61-3.97,5.67-5.63,7.82-6.28,14.81-13.12,20.14-21.86,2.65-4.35,7.56-7.36,11.57-10.85,6.52-5.68,13.16-11.22,19.68-16.89,3.3-2.87,4.46-6.56,3.28-10.8-.84-3,.3-5.01,2.47-7.01,2.75-2.54,5.17-5.42,7.74-8.16,2.82,2.95,2.71,3.82-1.64,10.91,3.55-1.26,5-4.3,8.12-5.94,1.12,1.03,2.4,2.19,3.73,3.41-.78,1.25-1.38,2.22-2.08,3.35,1.88.67,4.27-2.91,5.71,1.46-1.27,1.55-2.85,3.49-4.96,6.06,2.13-.85,3.6-1.43,5.3-2.11,2,.99,2.59,2.56.65,4.07-2.2,1.72-4.77,2.96-7.19,4.39-1.41.83-3.17,1.32-4.2,2.47-7.46,8.28-15.32,16.2-21.11,25.89-3.96,6.62-9.26,12.2-15.33,16.99-5.43,4.28-9.85,9.29-13.13,15.48-4.11,7.76-9.87,14.32-17.28,19.08-6.59,4.23-9.22,10.69-9.53,17.69-.38,8.44-.94,16.55-5.16,24.1-.75,1.33-.53,3.21-.72,4.84-.59,5.27-1.19,10.55-1.74,15.83-.41,3.97-.81,7.94-1.1,11.91-.19,2.55.33,4.78,2.38,6.76,1.21,1.16,2.05,3.19,2.19,4.89.48,5.8,2.76,11.11,4.09,16.67,4.06,17.09,1.88,33.82-3.49,50.16-2.93,8.9-3.18,17.51-.89,26.46,2.7,10.54.54,20.85-2.18,31.03-1.63,6.1-3.54,12.12-5.53,18.11-2.57,7.75-2.17,15.4.39,23.02,1.01,2.99,2.25,5.9,3.18,8.91.68,2.2,1.26,4.49,1.47,6.78.29,3.19.31,6.51-3.34,8.11-3.72,1.62-8.38.67-11.12-2.17-2.47-2.55-3.38-5.76-3.22-9.17.18-3.86-1-7.16-3.07-10.31-3.47-5.27-2.97-10.56.89-15.23,2.34-2.83,3.02-5.77,2.97-9.21-.14-8.73-1.94-17.2-4.41-25.5-2.13-7.17-2.18-14.1.75-20.97,1.29-3.04,1.37-6.01.64-9.23-2.71-12-5.24-24.04-7.86-36.06-.34-1.55-.79-3.08-1.19-4.62-.28.02-.57.05-.85.07Z"/>
  <path class="cls-1" d="m137.73,110.33c4.27,4.67,8.18,8.95,12.27,13.43-5.85,4.83-11.48,9.19-16.8,13.91-33.71,29.93-55.99,66.61-64.07,111.19-10.48,57.81,2.39,110.21,39.25,156.01,27.09,33.67,62.04,55.99,104.6,64.41,58.63,11.61,111.05-2.7,156.04-42.03,32.17-28.12,52.77-63.51,61.82-105.38,4.29-19.86,4.86-39.94,2.67-60.12-4.11-37.8-18.75-71.14-42.67-100.5-10.46-12.84-22.48-24.11-35.81-33.96-1.2-.89-2.35-1.83-4.06-3.16,4.2-4.58,8.28-9.02,12.53-13.65,10.27,7.39,19.5,15.47,28.1,24.28,28.09,28.79,46.97,62.7,56.03,101.91,5.41,23.4,6.42,47.06,3.76,70.97-4.42,39.85-19.62,75.17-44.6,106.21-28.58,35.51-64.41,60.76-109.05,71.57-59.51,14.41-114.78,3.97-164.37-32.26-44.98-32.87-73.06-77.04-82.79-131.97-9.95-56.17,2.02-108.11,33.5-155.56,13.76-20.74,30.89-38.34,50.8-53.25.79-.59,1.6-1.15,2.84-2.05Z"/>
  <path class="cls-1" d="m370.06,102.61c3.1-3.4,5.78-6.34,8.58-9.41.85.39,1.68.59,2.29,1.06,44.85,34.54,75.71,78.57,90.43,133.51,6.34,23.67,9.01,47.79,7.6,72.23-3.26,56.55-23.76,106.06-61.7,148.18-32.64,36.25-72.75,60.12-120.6,69.82-63.64,12.9-123.01,1.73-176.28-35.88-47.65-33.64-78.7-79.26-92.45-136.14-6.66-27.57-8.37-55.56-4.95-83.81,7.57-62.63,35.98-114.22,82.59-156.16,5.06-4.56,10.55-8.64,16.44-13.43,3.03,3.31,5.87,6.42,9.04,9.89-1.51,1.24-2.86,2.41-4.28,3.5-35.02,26.89-60.94,60.69-77.01,101.88-10.41,26.67-15.2,54.36-15.01,82.98.31,47,13.33,90.02,40.94,128.13,31.53,43.52,73.05,72.89,125.88,84.84,61.42,13.88,118.64,3.35,170.01-33.16,47.85-34.01,78-80.43,89.71-138.14,17.01-83.83-14.25-167.28-79.99-220.99-3.59-2.93-7.27-5.76-11.24-8.9Z"/>
  <path class="cls-1" d="m264.74,33.49c11.82.54,23.12,1.06,35.42,1.63-8.59,8.21-17.88,14.52-26.82,22.51,2.92,11.8,5.94,23.98,9.24,37.33-11.1-6.71-21.24-12.83-31.88-19.26-10.22,6.16-20.57,12.4-31.27,18.85,3.14-12.42,6.21-24.56,9.27-36.69-9.36-7.42-18.31-14.52-28.23-22.39,12.89-.78,24.59-1.48,36.76-2.21,4.41-10.67,8.84-21.41,13.74-33.26,4.83,11.74,9.31,22.62,13.78,33.49Zm9.03,10.66c-5.12-.56-10.15-1.12-15.16-1.67-2.62-5.48-5.08-10.64-7.77-16.29-2.59,5.82-4.87,10.95-7.28,16.36-5.11.55-10.21,1.11-16.21,1.75,3.48,3.16,5.88,5.7,8.66,7.75,3.37,2.48,3.86,5.37,2.66,9.13-1.07,3.37-1.73,6.88-2.82,11.33,5.74-2.9,10.43-5.28,15.18-7.68,4.93,2.79,9.77,5.52,15.41,8.71-1.49-6.3-2.77-11.7-4.02-16.95,3.79-4.16,7.34-8.07,11.34-12.46Z"/>
  <path class="cls-1" d="m319.75,87.11c-11.22-2.42-22.08-4.76-33.73-7.27-1.5-6.43-3.15-13.47-4.97-21.25,19.88.56,38.22,5.88,56.83,12.39-6.38,5.68-12.42,11.05-18.13,16.14Z"/>
  <path class="cls-1" d="m221.22,58.36c-1.83,7.97-3.41,14.88-4.92,21.46-11.42,2.6-22.38,5.1-34.13,7.78-5.09-4.77-10.75-10.07-17.05-15.97,18.22-7.23,36.47-11.61,56.11-13.28Z"/>
  <path class="cls-1" d="m214.9,383.43c-26.78,9.56-53.49,19.1-80.67,28.81-1.86-1.62-3.94-3.44-6.7-5.84,6.59-2.2,12.31-4.22,18.09-6.01,20.63-6.36,41.29-12.62,61.93-18.94,2.74-.84,5.5-1.95,7.34,1.98Z"/>
  <path class="cls-1" d="m203.41,371.43c-29.12,7.54-57.98,15.01-87.54,22.67-1.29-1.47-3-3.4-5.26-5.97,9.39-2.25,17.99-4.43,26.65-6.36,19.27-4.3,38.56-8.54,57.87-12.66,2.82-.6,6.31-2.44,8.28,2.32Z"/>
  <path class="cls-1" d="m371.32,406.36c-2.36,2.19-4.15,3.86-6.3,5.86-26.22-9.53-52.51-19.08-78.8-28.63.97-3.72,3.32-3.34,5.62-2.65,5.08,1.52,10.13,3.17,15.19,4.78,19.61,6.23,39.21,12.47,58.82,18.71,1.57.5,3.12,1.1,5.48,1.94Z"/>
  <path class="cls-1" d="m388.52,387.86c-2.16,2.56-3.62,4.3-5.19,6.15-28.71-7.58-57.32-15.14-86.28-22.79,1.09-1.22,1.95-2.18,3.09-3.46,29.16,6.63,58.32,13.26,88.38,20.09Z"/>
  <path class="cls-1" d="m191.23,359.16c-29.85,5.06-59.33,10.05-89.38,15.14-.99-1.59-2.15-3.47-3.67-5.91,5.9-.93,11.08-1.82,16.28-2.55,19.1-2.68,38.2-5.32,57.31-7.93,4.45-.61,8.96-.83,13.36-1.68,3-.58,4.78.32,6.09,2.94Z"/>
  <path class="cls-1" d="m309.35,359.12c1.39-2.25,3-3.3,6.04-2.86,20.7,2.97,41.44,5.71,62.17,8.55,7.23.99,14.45,2.06,21.67,3.13.6.09,1.17.46,2.14.86-1.23,2.05-2.3,3.84-3.37,5.62-29.68-5.12-59.08-10.2-88.64-15.3Z"/>
  <path class="cls-1" d="m156.19,428.72c-2.64-1.93-4.91-3.59-7.93-5.8,21.87-9.59,43.56-17.97,65.17-27.19.18,3.9-1.3,6.24-4.47,7.76-17.51,8.33-35,16.73-52.77,25.23Z"/>
  <path class="cls-1" d="m287.48,396.05c21.09,8.88,41.83,17.62,63.36,26.69-3.05,2.17-5.31,3.77-7.86,5.58-6.7-3.19-13.43-6.34-20.11-9.59-10.01-4.86-19.94-9.89-30.01-14.62-3.34-1.56-5.47-3.54-5.38-8.06Z"/>
  <path class="cls-1" d="m90.73,353.91c-.68-2.14-1.17-3.67-1.83-5.74,29.69-1.58,58.94-3.14,88.46-4.72.48,1.02.91,1.95,1.61,3.44-29.68,2.36-58.75,4.68-88.24,7.02Z"/>
  <path class="cls-1" d="m411.19,348.29c-.57,1.84-1.04,3.37-1.73,5.6-28.89-2.27-57.81-4.53-86.83-6.81-.69-3.43,1.48-3.51,3.78-3.39,8.3.42,16.6.83,24.9,1.29,9.46.53,18.92,1.17,28.38,1.64,9.46.47,18.94.78,28.4,1.19.94.04,1.86.28,3.11.47Z"/>
  <path class="cls-1" d="m356.21,145.85c2.91,2.67,5.08,4.66,7.73,7.1-11.7,19.25-23.28,38.29-34.85,57.33-.22-.12-.43-.23-.65-.35,9.14-21.08,18.27-42.15,27.77-64.08Z"/>
  <path class="cls-1" d="m172.32,209.25c-11.51-18.86-23.03-37.73-34.61-56.7,2.6-2.43,4.76-4.44,7.37-6.88,10.29,20.92,18.36,42.41,27.24,63.58Z"/>
  <path class="cls-1" d="m117.01,175.56c2.39-2.68,4.24-4.76,6.55-7.35,12.02,19.15,23.79,37.91,35.57,56.66l-.85.64c-13.7-16.58-27.39-33.15-41.27-49.95Z"/>
  <path class="cls-1" d="m378.33,168.3c2.22,2.69,4,4.85,6.02,7.3-13.51,16.47-26.89,32.77-40.27,49.08-.33-.23-.66-.46-.99-.69,11.43-18.62,23.04-37.12,35.24-55.69Z"/>
  <path class="cls-1" d="m100.43,201.81c1.78-2.94,3.13-5.16,4.97-8.19,14.56,16.76,28.66,32.98,42.76,49.21-.27.28-.54.56-.81.84-15.51-13.83-31.02-27.67-46.92-41.86Z"/>
  <path class="cls-1" d="m88.25,229.85c1.08-3.22,1.91-5.7,3.05-9.08,17.44,14.65,34.44,28.92,51.44,43.2-.18.25-.35.51-.53.76-17.91-11.58-35.82-23.15-53.96-34.88Z"/>
  <path class="cls-1" d="m354.04,241.89c13.73-16.04,27.45-32.08,41.53-48.53,1.7,3.02,3.05,5.43,4.64,8.25-15.09,13.79-30.13,27.54-45.17,41.28-.33-.33-.66-.67-.99-1Z"/>
  <path class="cls-1" d="m408.99,220.37c1.23,3.32,2.19,5.91,3.34,8.99-17.18,11.48-34.22,22.86-51.27,34.25l-.72-.9c16-13.93,32-27.85,48.65-42.35Z"/>
  <path class="cls-1" d="m417.5,249.64c.66,3.41,1.09,5.68,1.68,8.74-18.86,8.74-37.86,17.54-56.86,26.34-.16-.29-.33-.59-.49-.88,18.4-11.31,36.8-22.61,55.67-34.21Z"/>
  <path class="cls-1" d="m82.79,250.01c18.86,11.26,37.05,22.11,55.23,32.97-.14.29-.29.58-.43.87-18.88-7.87-37.4-16.55-56.17-25.28.42-2.63.81-5.03,1.37-8.56Z"/>
  <path class="cls-1" d="m140.36,304.61c-20.26-6.18-40.52-12.37-60.89-18.59-.12-1.44-.28-2.57-.28-3.69,0-1.14.16-2.27.29-4,20.62,8.58,40.9,17.03,61.18,25.47-.1.27-.2.54-.3.81Z"/>
  <path class="cls-1" d="m362.88,302.66c19.21-8.08,38.43-16.16,58.2-24.48v7.76c-19.17,5.87-38.53,11.8-57.89,17.73-.1-.34-.2-.68-.31-1.02Z"/>
  <path class="cls-1" d="m144.82,321.68c-21.4-3.52-42.8-7.03-64.53-10.6-.29-2.07-.55-3.95-.93-6.7,22.28,5.66,43.86,11.15,65.44,16.63,0,.22.01.45.02.67Z"/>
  <path class="cls-1" d="m356.38,320.9c21.28-5.48,42.55-10.96,64.52-16.61-.37,2.76-.62,4.65-.89,6.7-21.29,3.55-42.35,7.06-63.42,10.57-.07-.22-.14-.44-.21-.65Z"/>
  <path class="cls-1" d="m19.1,435.08c5.91-1.15,6.86-5.33,7.34-10.33,1.99,1.81,3.41,3.85,5.34,4.66,1.79.74,4.13.16,6.54.16-.47.91-.92,1.89-1.47,2.81-.58.98-1.25,1.91-1.95,2.98.99,2.11,1.95,4.15,2.95,6.27q-6.89-.59-11.96,3.98c0-5.1-2.31-8.4-6.79-10.53Z"/>
  <path class="cls-1" d="m472.89,424.42c-.64,5.86,1.34,9.06,6.77,10.24-2.29,1.76-4.4,2.78-5.57,4.46-1.13,1.63-1.29,3.93-2.06,6.58-3.17-4-6.76-5.86-12-3.87,1.33-2.57,2.28-4.42,3.35-6.49-1.01-2.04-2.02-4.08-3.2-6.46,2.57.24,5,1.08,7.02.49,1.8-.53,3.14-2.64,5.68-4.95Z"/>
  <path class="cls-1" d="m313.25,193.88c1.83-7,3.66-14,5.49-21.01.5-1.93,1.21-3.82,1.47-5.78,1.16-8.69,5.15-15.62,13.27-20.85-6.64,16.29-13.07,32.08-19.5,47.87-.24-.08-.48-.15-.73-.23Z"/>
  <path class="cls-1" d="m170.41,146.49c2.31,2.59,4.76,5.06,6.86,7.81,1.17,1.52,2.04,3.41,2.55,5.27,3.08,11.31,6.01,22.65,8.45,34.2-6.34-15.47-12.68-30.95-19.02-46.42.39-.29.77-.57,1.16-.86Z"/>
  <path class="cls-1" d="m365.99,333.88c16.83-1.9,33.66-3.81,50.99-5.77-.08,1.58-.14,2.63-.21,4.04-17.08.82-34,1.64-50.91,2.45l.12-.73Z"/>
  <path class="cls-1" d="m83.56,332.24c-.08-1.33-.13-2.15-.23-3.63,17.99.92,35.58,3.95,53.29,6-17.54-.78-35.08-1.56-53.06-2.37Z"/>
  <path class="cls-1" d="m6.51,378.2c1.47,2.1,2.21,3.17,3.04,4.36,1.74.13,3.53.27,5.69.43-1.96,2.94-3.6,5.79-.62,9.24q-5.52-.74-9.95,1.95c-.12-1.53-.23-2.97-.34-4.44-1.32-1.21-2.61-2.4-4.33-3.97,3.76-1.05,6.25-2.93,6.51-7.56Z"/>
  <path class="cls-1" d="m178.31,439.98c-1.57-1.02-2.79-1.82-4.63-3.02,10.85-6.17,21.25-12.09,31.65-18,.17.24.34.47.51.71-9.15,6.75-18.31,13.5-27.53,20.31Z"/>
  <path class="cls-1" d="m500.32,385.73c-4.26,1.6-5.79,3.93-5.27,7.36-3.03-.59-5.86-1.13-8.81-1.7,1.88-2.66.87-5.46-1.86-8.47,2.21-.13,3.76-.22,5.63-.33.83-1.05,1.8-2.27,3.04-3.84.6,1.62,1.04,2.83,1.58,4.27,1.42.68,3.02,1.45,5.69,2.72Z"/>
  <path class="cls-1" d="m326.52,437.03c-1.76,1.03-3.02,1.77-4.51,2.64-8.26-6.11-16.45-12.17-24.64-18.22.19-.29.38-.58.57-.87,9.4,5.41,18.79,10.82,28.58,16.45Z"/>
  <path class="cls-1" d="m425.18,482.65c1.66,1.26,3.36,2.54,5.19,3.93-.8,1.35-1.89,3.17-3.03,5.09-3.67,1.26-3.93-3.7-6.86-3.63,1.69-1.94,3.2-3.66,4.7-5.38Z"/>
</svg>