<?xml version="1.0" encoding="UTF-8"?>
<svg id="Layer_1" data-name="Layer 1" xmlns="http://www.w3.org/2000/svg" viewBox="0 0 735.79 655.72">
  <defs>
    <style>
      .cls-1 {
        fill: #99895c;
      }
    </style>
  </defs>
  <path class="cls-1" d="m153.65,559.99c-7.04,10.37-13.21,19.44-19.37,28.52-.84,1.24-1.46,2.84-2.62,3.59-1.25.81-3.02.81-4.56,1.16.03-1.45-.51-3.28.17-4.3,6.22-9.26,11.86-19.08,19.23-27.36,8.21-9.23,7.63-19.68,7.24-30.4-.06-1.62-2.13-3.54-3.72-4.68-41.01-29.37-70.98-67.42-84.83-115.98-24.02-84.23-4.24-158.23,56.86-220.93,8.21-8.42,17.88-15.43,27.06-22.87,5.11-4.14,6.94-12.92,3.06-19.43-8.37-14-17.07-27.81-25.44-41.81-1.34-2.24-5.41-5.17-1.79-7.55,3.99-2.62,5.06,2.34,6.53,4.74,6.94,11.37,13.67,22.86,20.49,34.31.3.51.75.92,1.68,2.05.11-2.42.24-4,.24-5.58.02-20.16.03-40.33.02-60.49,0-18.34,11.1-29.49,29.61-29.52,37.33-.06,74.66-.05,111.99-.07,2.13,0,4.26,0,6.11,0,.44-.81.71-1.09.73-1.38,1.04-17.28,4.53-21.85,20.74-27.55,13.03-4.58,25.96-9.44,39.05-13.83,2.57-.86,5.92-.86,8.5,0,12.95,4.28,25.76,8.96,38.61,13.53,16.07,5.72,20.41,11.51,21.48,29.25,2.03,0,4.11,0,6.19,0,37.66.01,75.33.37,112.98-.12,15.36-.2,30.9,10.44,30.15,30.23-.77,20.3-.2,40.66-.22,60.99,0,1.78,0,3.56.93,5.66,3.43-5.4,6.87-10.81,10.29-16.21,5.17-8.16,10.34-16.32,15.52-24.47,1.21-1.91,2.72-4.08,4.96-1.83.84.85.67,3.74-.13,5-9.7,15.34-19.6,30.55-29.44,45.8-4.05,6.28-2.62,13.09,3.39,17.36,50.56,36.03,83.41,84.04,92.08,145.74,12.78,90.95-20.76,162.91-94.84,216.49-1.34.97-2.59,3.08-2.6,4.68-.18,16.66-.14,33.33-.04,49.99,0,1.56.56,3.26,1.31,4.66,1.37,2.58,3.15,4.83-.49,7.21-.83.55-.84,2.69-.85,4.11-.08,9.16-.03,18.33-.07,27.5-.07,18.57-10.98,29.5-29.52,29.5-99.99.02-199.97.02-299.96.02-22.5,0-44.99,0-67.49-.08-18.43-.07-29.02-10.82-28.99-29.27.02-20.5.02-40.99.02-61.49,0-1.11-.11-2.23-.24-4.88Zm388.17,67.39V70.87h-111.89c0,13.33-.1,26.15.16,38.97.03,1.2,2.16,2.83,3.65,3.46,6.44,2.74,10.83,9.34,10.08,15.73-.8,6.85-6.38,12.6-13.46,13.49-3.46.43-6.98.44-10.48.45-17.16.05-34.33.07-51.49.02-21.66-.06-43.32-.05-64.98-.35-8.16-.11-14.51-6.22-15.26-13.72-.76-7.51,4.01-13.78,12.11-15.96.78-.21,1.5-.59,2-.79v-41.39h-110.07v556.6h349.62Zm38.33-213.89v95.77c48.55-32.52,87.85-96.8,84.12-172.35-3.19-64.52-31.79-115.78-84.11-155.23v203.79q9.66,1.79,13.51-6.4c1.29-2.73,2.81-5.36,4.77-9.07,1.65,2.7,2.97,4.08,3.43,5.71,2.27,8.15,7.34,11.63,15.8,10.5,1.56-.21,3.3.93,4.96,1.44-.74,1.6-1.42,3.23-2.24,4.78-.46.87-1.06,1.71-1.75,2.42-3.38,3.44-3.04,6.95-.57,10.76,1.18,1.82,1.88,3.95,3.2,6.82-4.08-.33-7.05-.41-9.97-.84-3.95-.59-6.59.44-8.02,4.53-.94,2.69-2.72,5.09-4.73,8.71-4.89-7.1-6.59-18.01-18.42-11.34ZM153.62,183.1c-110.78,82.18-109.43,246.69,0,325.74V183.1Zm263.17-70.77c0-2.57,0-4.54,0-6.5.01-20.98.01-41.96.04-62.94.01-9.75-1.62-12.19-10.71-15.43-12.36-4.4-24.73-8.8-37.14-13.07-1.42-.49-3.28-.66-4.65-.19-13.35,4.62-26.65,9.36-39.94,14.15-7.06,2.55-8.52,4.69-8.53,12.18-.01,22.31,0,44.62.03,66.93,0,1.59.14,3.19.22,4.86h100.68Zm196.84,279.49c-8.04,1.49-12.44-2.22-14.98-10.84-2.26,9.1-7.05,12.18-13.9,10.96,1,4.89,1.92,9.38,2.93,14.32,4.49-.89,8.35,1.6,11.33,7.9,1.69-8.73,7.6-8.07,14.23-7.9-5.4-5.44-2.73-9.72.4-14.44Z"/>
  <path class="cls-1" d="m70.97,543.71c-.63-2.66-1.5-4.29-1.21-5.68.27-1.29,1.71-2.38,2.74-3.46,9.74-10.21,19.5-20.39,29.26-30.58.57-.6,1.09-1.49,1.79-1.68,1.26-.35,2.64-.27,3.97-.37-.14,1.33.2,3.05-.51,3.93-2.6,3.23-5.52,6.18-8.35,9.22-7.46,8.02-14.92,16.04-22.43,24.02-1.21,1.29-2.67,2.35-5.26,4.6Z"/>
  <path class="cls-1" d="m729.86,426.47c-13.02-3.62-25.15-6.99-37.28-10.38-2.07-.58-4.29-.94-6.13-1.95-1.15-.63-1.74-2.29-2.58-3.49,1.44-.66,3.08-2.14,4.28-1.84,8.84,2.19,17.59,4.73,26.37,7.15,5.27,1.46,10.59,2.76,15.76,4.5,1.11.37,2.44,2.38,2.32,3.49-.12,1.05-2,1.9-2.74,2.52Z"/>
  <path class="cls-1" d="m629.78,500.31c1.21.98,2.34,1.7,3.21,2.64,10.25,11.12,20.52,22.23,30.59,33.51.94,1.05.55,3.3.78,4.99-1.55-.37-3.66-.21-4.57-1.18-10.55-11.3-20.94-22.74-31.26-34.25-.82-.91-1.07-2.58-1.04-3.89.01-.59,1.38-1.14,2.29-1.83Z"/>
  <path class="cls-1" d="m687.93,302.81c-.81-.8-2.19-1.68-2.67-2.91-.19-.49,1.48-2.36,2.53-2.59,14.45-3.12,28.93-6.14,43.45-8.95,1.36-.26,3.02,1.1,4.55,1.7-.85,1.21-1.51,3.28-2.56,3.51-14.79,3.17-29.63,6.09-45.29,9.24Z"/>
  <path class="cls-1" d="m3.67,427.95c-.44-1.26-1.41-2.61-1.19-3.74.25-1.34,1.28-3.21,2.4-3.58,5.34-1.8,10.81-3.2,16.25-4.7,8.31-2.31,16.6-4.71,24.98-6.76,1.26-.31,2.93,1.08,4.41,1.68-.86,1.17-1.51,3.06-2.62,3.39-13.83,4.13-27.73,8.03-41.61,11.98-.31.09-.66.08-.99.11-.54.54-1.08,1.08-1.62,1.62Z"/>
  <path class="cls-1" d="m666.76,161.43c-.87,1.14-1.45,2.17-2.28,2.94-10.5,9.73-20.98,19.47-31.63,29.04-.94.84-2.96.47-4.48.66.33-1.54.14-3.63,1.08-4.54,10.31-9.93,20.76-19.71,31.27-29.42.94-.87,2.64-1.34,3.93-1.26.73.05,1.36,1.61,2.1,2.57Z"/>
  <path class="cls-1" d="m2.95,287.89c10.41,2.07,20.02,3.98,29.64,5.9,4.56.91,9.18,1.65,13.65,2.87,1.11.3,1.78,2.19,2.65,3.35-1.26.69-2.65,2.16-3.76,1.97-13.76-2.4-27.49-4.95-41.18-7.74-1.5-.3-2.65-2.3-3.96-3.52,1.06-1.01,2.11-2.03,2.95-2.83Z"/>
  <path class="cls-1" d="m107.59,192.78c-1.52,3.03-3.25,3.07-5.52.95-10.59-9.89-21.28-19.67-31.76-29.67-.9-.85-.48-3.08-.68-4.67,1.46.07,3.49-.47,4.3.29,11.03,10.38,21.9,20.93,32.79,31.47.34.33.47.87.86,1.63Z"/>
  <path class="cls-1" d="m690.39,199.37c-1.19.59-2.46,1.07-3.57,1.78-10.2,6.57-20.32,13.24-30.61,19.67-1.14.71-3.12.09-4.72.08.62-1.45.81-3.52,1.91-4.26,10.15-6.93,20.45-13.65,30.72-20.41,2.52-1.66,4.35-1.28,6.26,3.14Z"/>
  <path class="cls-1" d="m713.77,243.05c-1.05.87-1.96,2.09-3.16,2.56-11.29,4.4-22.6,8.76-33.99,12.87-1.18.42-2.95-.8-4.44-1.25.88-1.19,1.51-3.01,2.68-3.48,11.23-4.56,22.52-8.97,33.89-13.18,1.33-.49,3.19.46,4.81.74.07.59.15,1.17.22,1.76Z"/>
  <path class="cls-1" d="m63.74,258.13c-1.62.23-3.45,1.07-4.83.59-6.27-2.18-12.41-4.75-18.61-7.15-4.65-1.8-9.41-3.34-13.93-5.43-1.38-.64-2.11-2.7-3.13-4.12,1.69-.45,3.69-1.72,5.02-1.21,10.71,4.08,21.31,8.44,31.9,12.84,1.4.58,2.52,1.83,3.78,2.76-.07.57-.14,1.14-.2,1.71Z"/>
  <path class="cls-1" d="m49.31,195.14c1.21.61,2.15.98,2.96,1.52,9.51,6.35,19.06,12.65,28.42,19.21,1.36.96,1.82,3.21,2.7,4.86-1.87-.21-4.11.19-5.55-.71-9.56-5.96-18.99-12.12-28.34-18.42-1.24-.83-1.96-2.71-2.41-4.25-.14-.47,1.42-1.43,2.22-2.2Z"/>
  <path class="cls-1" d="m68.07,450.25c-.9.86-1.67,1.99-2.74,2.55-9.81,5.17-19.63,10.33-29.58,15.22-1.19.59-3.18-.45-4.8-.74.77-1.42,1.17-3.53,2.35-4.16,9.78-5.22,19.67-10.27,29.65-15.1,1.27-.61,3.3.34,4.98.57.04.55.08,1.1.12,1.65Z"/>
  <path class="cls-1" d="m669.2,446.84c1.6.65,2.71,1,3.73,1.52,9.16,4.67,18.35,9.28,27.39,14.16,1.39.75,2.08,2.79,3.09,4.23-1.69.41-3.8,1.69-5,1.1-9.82-4.81-19.5-9.93-29.14-15.1-1.1-.59-2.15-2.09-2.32-3.3-.11-.76,1.47-1.76,2.25-2.6Z"/>
  <path class="cls-1" d="m253.27,288.95c.32-62.86,49.72-112.18,112.02-111.83,61.38.34,110.11,50.52,109.76,112.99-.34,60.02-50.81,109.28-111.76,109.08-60.26-.2-110.32-50.36-110.02-110.23Zm214.13-.19c.38-56.9-45.52-103.9-101.84-104.27-57.39-.38-104.22,45.27-104.69,102.02-.47,58.28,44.95,104.7,102.89,105.16,56.86.45,103.25-45.61,103.64-102.91Z"/>
  <path class="cls-1" d="m229.95,522.9c-.08-1.56-.15-2.85-.26-4.79h267.86v4.79H229.95Z"/>
  <path class="cls-1" d="m497.15,445.94c-6.35,0-12.65,0-18.96,0-80.82.04-161.64.09-242.46.13-1.5,0-3.12.29-4.45-.19-.92-.33-1.97-1.77-1.97-2.71,0-.89,1.15-2.11,2.09-2.56.96-.45,2.29-.15,3.45-.15,85.82,0,171.64-.01,257.46-.03,3.08,0,6.48-.44,4.84,5.52Z"/>
  <path class="cls-1" d="m497.4,473.89v5.15c-1.56.1-2.85.26-4.15.26-85.79,0-171.57,0-257.36-.02-1.33,0-2.8.34-3.96-.12-1.08-.43-1.82-1.7-2.71-2.6.94-.86,1.76-1.94,2.85-2.5.8-.41,1.96-.14,2.96-.14,85.95-.01,171.9-.02,257.86-.03,1.32,0,2.63,0,4.51,0Z"/>
  <path class="cls-1" d="m497.72,457.71v4.42c-.92.16-1.71.42-2.5.43-10,.04-20,.05-30,.05-76.83,0-153.66,0-230.49,0-3.05,0-6.51.55-5.01-4.9h268.01Z"/>
  <path class="cls-1" d="m230.19,534.53h267.58c.1,1.51.19,3.03.31,4.88-1.87.13-3.32.31-4.77.31-85.97.02-171.94.02-257.91.02-3.1,0-6.95.76-5.21-5.21Z"/>
  <path class="cls-1" d="m276.01,501.28c2.24-.12,4.37-.33,6.5-.33,69.63-.02,139.25-.01,208.88-.02,3.14,0,6.42-.23,4.7,4.96-1.22.11-2.5.33-3.78.33-69.96-.02-139.92-.05-209.88-.09-1.17,0-2.33-.13-3.5-.09-3.51.14-3.73-1.76-2.92-4.76Z"/>
  <path class="cls-1" d="m496.39,428.35h-218.03c-1.05-3.13-.65-4.98,3.02-4.87,1.83.05,3.66-.07,5.5-.07,68.13,0,136.26-.01,204.39-.01,2.98,0,6.57-.76,5.13,4.95Z"/>
  <path class="cls-1" d="m364.9,578.3c-30.13,0-60.27,0-90.4,0-1.5,0-3.06.22-4.47-.15-.82-.21-1.38-1.39-2.06-2.14.65-.58,1.22-1.53,1.96-1.68,1.45-.29,2.98-.18,4.48-.18,60.27-.04,120.54-.07,180.81-.09,1.16,0,2.41-.2,3.47.15.87.29,1.52,1.25,2.27,1.92-.72.69-1.34,1.79-2.17,1.99-1.42.34-2.97.15-4.47.15-29.8,0-59.6,0-89.41,0v.03Z"/>
  <path class="cls-1" d="m487.96,163.22c1.11,6.76,5.25,8.13,11.46,6.78-3.6,4.65-4.73,8.81.33,13.42-7.1-1.8-10.39,1.56-12.53,7.57-2.19-5.94-5.78-8.74-12.34-7.39,3.68-4.53,5.7-8.61-.37-12.73.39-.24.78-.48,1.17-.73,2.48,0,5.39.8,7.31-.23,1.78-.97,2.51-3.89,3.7-5.96.43-.24.86-.49,1.28-.73Zm4.73,14.38c-2.22-1.85-4.16-3.46-6.39-5.31-1.5,2.33-2.79,4.34-4.05,6.3,4.96,3.9,5.15,3.89,10.44-.99Z"/>
  <path class="cls-1" d="m257.96,183.87c-6.81-3.12-8.95,2-11.82,7.85-1.92-6.71-5.09-9.95-12.4-7.77,2.01-3.26,4.06-5.14,4.07-7.03.01-1.97-1.94-3.95-3.54-6.83,5.4.18,11.14.87,11.95-7.24,2.09,6.53,6.06,8.48,11.7,6.55,0,.82.03,13.28.03,14.47Zm-12.14-11.51c-.13,2.84-6.79,3.34-2.5,7.44,2.32,2.22,4.46,1.95,6.26-.39,3.45-4.5-2.56-4.47-3.76-7.04Z"/>
  <path class="cls-1" d="m474.85,565.24c5.54-.02,9.91,4.19,10,9.63.1,5.56-4.46,9.95-10.26,9.9-5.38-.05-9.77-4.52-9.75-9.93.02-5.38,4.39-9.57,10.01-9.59Zm.09,2.91c-2.39,3.11-4.96,5.05-4.69,6.44.39,1.99,2.86,3.56,4.45,5.31,1.68-1.69,4.23-3.15,4.74-5.14.34-1.33-2.2-3.41-4.5-6.61Z"/>
  <path class="cls-1" d="m254.77,564.9c4.68-.02,8.76,3.78,8.94,8.31.18,4.37-4.42,8.86-9.06,8.84-4.34-.02-8.63-4.36-8.61-8.71.02-4.55,4.02-8.42,8.73-8.44Zm.42,2.47c-2.13,2.85-4.19,4.42-4.12,5.87.07,1.46,2.27,2.82,3.54,4.22,1.4-1.28,3.67-2.4,3.95-3.89.26-1.37-1.61-3.15-3.37-6.2Z"/>
  <path class="cls-1" d="m247.45,505.3c-.1-5.88,4.14-3.27,6.58-4.01,1.61,5.18.95,5.6-6.58,4.01Z"/>
  <path class="cls-1" d="m244.36,422.91c1.83,1.37,3.05,2.29,4.28,3.21-1.45.81-2.87,2.19-4.34,2.24-1.29.05-2.64-1.38-3.97-2.16,1.18-.96,2.35-1.92,4.03-3.3Z"/>
  <path class="cls-1" d="m238.5,500.23c2.52,1.33,4.6,2.43,6.68,3.52-1.32.81-2.56,2.06-3.99,2.33-3.24.62-4.18-1.1-2.69-5.85Z"/>
  <path class="cls-1" d="m257.02,501.55h7.89c-.2,1.49.03,3.79-.69,4.14-1.46.71-3.6.85-5.13.29-.92-.34-1.2-2.42-2.08-4.43Z"/>
  <path class="cls-1" d="m237.64,424.37q-.14,4.47-7.09,3.84c-1.07-4.69-.8-4.84,7.09-3.84Z"/>
  <path class="cls-1" d="m229.93,500.12c2.19,1.48,3.84,2.6,5.49,3.72-.96.81-1.84,2.16-2.91,2.34-3.33.57-3.98-1.33-2.58-6.06Z"/>
  <path class="cls-1" d="m272.47,506.96c-1.79-1.06-3.59-2.11-5.38-3.17,1.32-.8,2.73-2.36,3.93-2.21,1.25.16,2.29,1.96,3.42,3.04l-1.97,2.34Z"/>
  <path class="cls-1" d="m257.93,422.91c1.84,5.41-.47,5.93-3.18,5.47-1.42-.24-2.68-1.36-4.02-2.08,2.26-1.07,4.53-2.13,7.2-3.39Z"/>
  <path class="cls-1" d="m267.84,423.1c1.88,5.03-.11,5.8-2.85,5.31-1.44-.26-2.72-1.43-4.07-2.19,2.22-1,4.44-2,6.92-3.12Z"/>
  <path class="cls-1" d="m269.88,426.85c1.12-.92,2.19-2.5,3.36-2.56,1.1-.06,2.29,1.47,3.43,2.3-1.72.87-3.44,1.74-5.17,2.61-.54-.79-1.08-1.57-1.63-2.36Z"/>
  <path class="cls-1" d="m107.35,410.38c1.37-5.91.07-15.25-2.68-20.63-.29-.56-.36-1.23-.87-3.11,3.88,0,7.28-.19,10.64.05,3.26.24,5.27-.85,6.64-3.89,1.53-3.4,3.54-6.58,5.94-10.96,1.77,2.87,3.29,4.47,3.82,6.36,1.98,7.02,6.44,9.41,13.38,8.05,1.56-.3,3.23-.04,6.32-.04-1.85,3.06-2.74,5.39-4.34,7.01-3.77,3.81-4.11,7.61-1.16,11.98.89,1.33,1.35,2.95,2.44,5.44-2.98-.2-5.18-.16-7.32-.54-3.98-.7-7.12-.46-8.47,4.3-.64,2.25-2.28,4.23-4.06,7.37-1.86-2.88-3.46-4.73-4.35-6.88-1.58-3.84-4.05-5.24-8.16-4.57-2.5.4-5.13.07-7.78.07Zm5.49-19.02c4.27,5.02,5.16,9.08,1.31,14.16,6.3-1,10.68.51,13.52,6.52,1.15-8,6.9-6.72,12.38-7.03-4.64-4.88-1.4-8.91,1.03-13.69-7.72,2.06-11.23-2.23-14.2-9.18-2.03,7.6-5.8,10.88-14.04,9.22Z"/>
  <path class="cls-1" d="m324.83,104.4v-48.97h25.11c3.03,10.18,8.35,15.02,16.31,15,8.48-.01,13.17-4.44,16.18-15.35h25.32v49.31h-82.92Z"/>
  <path class="cls-1" d="m324.67,50.87c0-4.07-.23-7.88.14-11.63.12-1.18,1.62-2.77,2.84-3.22,12-4.44,24.06-8.74,36.16-12.92,1.4-.48,3.27-.4,4.69.09,11.16,3.83,22.18,8.08,33.41,11.66,4.75,1.51,7.03,3.71,6.28,8.79-.31,2.09-.05,4.27-.05,7.32-8.47,0-16.55.1-24.62-.13-1.03-.03-2.34-1.61-2.95-2.76-3.17-6-8.02-9.39-14.8-9.23-6.54.15-11.22,3.57-14.21,9.42-.52,1.03-1.61,2.49-2.46,2.51-7.94.19-15.88.11-24.42.11Z"/>
  <path class="cls-1" d="m354.66,54.64c.13-6.85,5.08-11.95,11.52-11.87,6.63.08,11.87,5.54,11.8,12.29-.07,6.61-5.11,11.47-11.89,11.45-6.51-.02-11.55-5.26-11.43-11.88Zm11.14-6.84c-3.81,0-6.09,2.59-6.03,6.89.05,3.98,2.62,6.59,6.48,6.58,3.79,0,6.39-2.71,6.44-6.7.05-4.09-2.67-6.77-6.89-6.77Z"/>
  <path class="cls-1" d="m363.35,385.97c-53.3-.14-97.5-44.49-97.25-97.57.26-54.67,44.46-98.28,99.41-98.09,53.86.19,96.67,44.37,96.38,99.7-.26,49.71-41.19,96.71-98.53,95.96Zm91.78-97.76c-.13-51.26-40.24-91.09-91.57-90.94-50.31.15-90.68,41.05-90.57,91.76.1,49.81,41.23,90.37,91.57,90.29,50.25-.08,90.7-40.76,90.57-91.11Z"/>
  <path class="cls-1" d="m366.29,211.77c45.67,1.74,76.68,39.3,74.42,81.14-2.23,41.34-39.07,74.79-79.4,72.31-44-2.71-76.33-38.91-73.4-82.19,2.74-40.45,39.23-73.63,78.38-71.26Zm-73.52,76.46c-.07,39.8,32.18,72.03,72.11,72.06,38.41.03,70.86-32.84,70.95-71.86.09-39.56-31.9-71.68-71.35-71.66-39.32.03-71.63,32.23-71.7,71.46Z"/>
  <path class="cls-1" d="m394.96,304.19c-4.23-1.6-8.51-3.1-12.68-4.85-2.59-1.09-4.47-1.48-7.06.77-6.24,5.42-13.61,5.63-20.06.48-2.97-2.37-5.1-2.02-7.98-.53-2.64,1.36-5.44,2.49-8.28,3.39-3.34,1.05-5.27.02-4.47-3.91.07-.33.07-.68.21-.97,5.28-10.86-.26-18.51-7.56-25.67-1.07-1.05-2.07-2.17-3.01-3.33-2.07-2.56-2.03-4.76,1.63-5.36,4.22-.69,9.29.33,12.55-1.71,3.06-1.91,3.92-7.08,6.37-10.35,1.62-2.17,4.1-4.28,6.61-5.09,5.29-1.71,7.4-5.6,9.02-10.26.54-1.56,1.34-3.04,2.14-4.49,1.53-2.76,4.15-3.36,5.11-.33,2.94,9.33,9.83,14.73,17.36,19.98,2.4,1.67,4.17,4.87,5.18,7.74,1.14,3.21,2.89,3.88,5.89,3.74,2.47-.11,4.99.14,7.44.56,3.63.62,4.5,2.61,2.1,5.57-3.25,4-6.56,7.95-9.89,11.89-2.31,2.73-3.07,5.52-1.83,9.15,1.31,3.84,1.83,7.95,2.69,11.94l-1.48,1.61Zm-29.87-62.72c-.95,6.46-5.15,8.44-9.95,10.88-3.96,2.02-8.3,6.1-9.48,10.15-1.88,6.44-4.88,8.67-11.06,7.73-.19-.03-.45.38-1.22,1.07,7.06,6.37,12.42,13.56,7.74,24.62,3.69-1.37,5.98-2.22,8.4-3.12-.13-1.45-.36-2.75-.35-4.05.03-8.34,6.78-15.06,15.32-15.32,8.03-.24,16.4,6.29,16.15,13.87-.21,6.12,3.24,6.96,8.2,8.29-3.71-10.3-.17-18.14,8.09-24.98-2.47-.4-3.64-.87-4.74-.73-4.55.58-6.29-1.6-7.26-5.84-1.19-5.2-4.27-9.77-9.37-11.64-5.37-1.96-9.56-4.35-10.44-10.94Zm-.58,56.53c5.11.25,9.93-3.97,10.24-8.95.31-5-3.96-9.34-9.45-9.6-5.43-.26-9.96,3.63-10.23,8.79-.26,4.95,4.14,9.49,9.44,9.76Z"/>
  <path class="cls-1" d="m346.08,327.27v-10.05c6.71-1.38,7.21-.91,6.85,5.59-.08,1.47.52,2.99.81,4.48-.54.42-1.08.85-1.62,1.27-.71-1.61-1.42-3.21-2.49-5.64-1.19,2.35-1.74,3.45-2.29,4.54-.42-.06-.85-.13-1.27-.19Z"/>
  <path class="cls-1" d="m403.31,323.29c-1.45,2.25-2.13,3.3-2.81,4.36-.43-.07-.86-.14-1.29-.22,0-3-.29-6.06.21-8.97.12-.71,3.03-1.63,4.32-1.26,1.31.38,2.86,2.11,3.1,3.47.36,2.02-.34,4.23-1.99,8.14-.47-1.7-.94-3.4-1.53-5.52Z"/>
  <path class="cls-1" d="m343.96,322.07c-2.05.71-3.46,1.21-6.31,2.2,3.08.8,4.63,1.21,6.19,1.62,0,.41-.01.83-.02,1.24-2.15.12-4.31.24-7.55.42.75-4.12,1.18-7.52,2.19-10.75.12-.38,3.38.22,5.19.37-.05.44-.1.89-.15,1.33-1.4.2-2.8.41-5.59.81,2.76,1.26,4.19,1.92,6.05,2.76Z"/>
  <path class="cls-1" d="m397.33,322.04c-1.65.7-3.03,1.28-5.45,2.3,2.57.91,4.12,1.46,5.66,2,0,.23-.01.47-.02.7h-6.78c0-1.62-.03-3.23,0-4.83.04-1.61.14-3.22.24-5.39,2.41.14,4.49.26,6.57.38,0,.36.02.72.03,1.07-1.5.31-3,.62-4.5.93-.02.32-.04.64-.07.95,1.34.58,2.68,1.17,4.33,1.89Z"/>
  <path class="cls-1" d="m368.95,323.93c1.22-2.97,2.12-5.18,3.03-7.39.49.19.99.39,1.48.58-.43,1.24-.66,2.6-1.32,3.7-1.36,2.27-2.59,4.92-4.61,6.37-.86.62-3.01-7.42-1.56-10.95.64,1.56,1.1,2.67,1.54,3.79.43,1.11.83,2.23,1.45,3.9Z"/>
  <path class="cls-1" d="m357.03,324.54c2.3.87,3.52,1.33,4.74,1.79-.04.26-.08.52-.12.79h-5.65v-10.3c2.25.15,4.42.3,6.6.44v1.41c-1.5.25-3.01.5-5.91.99,2.5,1.04,3.7,1.53,5.45,2.26-1.62.83-2.83,1.46-5.1,2.63Z"/>
  <path class="cls-1" d="m333.94,316.73c-1.02,3.93-1.89,7.26-2.81,10.76-3.53-2.31,1.89-8.61-4.79-9l.18-1.42c2.82-.13,5.63-.26,7.42-.34Z"/>
  <path class="cls-1" d="m388.28,327.17c-.79.09-1.58.26-2.37.26-1.31,0-2.61-.1-3.78-.16v-10.42c.51-.02,1.01-.04,1.52-.06.12,2.48.25,4.96.38,7.77,1.34.53,2.78,1.09,4.21,1.66.01.32.03.63.04.95Z"/>
  <path class="cls-1" d="m374.97,327.2c.22-3.65.44-7.16.65-10.66,3.39,5.73,2.78,9.95-.65,10.66Z"/>
  <path class="cls-1" d="m324.17,316.8v10.4c-.46,0-.93.02-1.39.02v-10.46c.46.01.93.03,1.39.04Z"/>
</svg>